<?xml version="1.0" encoding="UTF-8" standalone="no"?>
<!-- Created with Inkscape (http://www.inkscape.org/) -->

<svg
   version="1.1"
   id="svg3430"
   width="629.76001"
   height="572.30798"
   viewBox="0 0 629.76001 572.30798"
   sodipodi:docname="directplotofstrengths_postinkscape.svg"
   inkscape:version="1.2.1 (0f2f062aeb, 2022-09-21, custom)"
   xmlns:inkscape="http://www.inkscape.org/namespaces/inkscape"
   xmlns:sodipodi="http://sodipodi.sourceforge.net/DTD/sodipodi-0.dtd"
   xmlns="http://www.w3.org/2000/svg"
   xmlns:svg="http://www.w3.org/2000/svg">
  <defs
     id="defs3434">
    <clipPath
       clipPathUnits="userSpaceOnUse"
       id="clipPath3610">
      <path
         d="m 54.828,0.375 h 414.719 v 371.52 H 54.828 Z"
         id="path3608" />
    </clipPath>
    <clipPath
       clipPathUnits="userSpaceOnUse"
       id="clipPath3620">
      <path
         d="M 0,0 H 473 V 430 H 0 Z"
         id="path3618" />
    </clipPath>
  </defs>
  <sodipodi:namedview
     id="namedview3432"
     pagecolor="#ffffff"
     bordercolor="#666666"
     borderopacity="1.0"
     inkscape:showpageshadow="2"
     inkscape:pageopacity="0.0"
     inkscape:pagecheckerboard="0"
     inkscape:deskcolor="#d1d1d1"
     showgrid="false"
     inkscape:zoom="0.87540278"
     inkscape:cx="253.59755"
     inkscape:cy="255.31105"
     inkscape:window-width="1292"
     inkscape:window-height="704"
     inkscape:window-x="0"
     inkscape:window-y="0"
     inkscape:window-maximized="1"
     inkscape:current-layer="g3438">
    <inkscape:page
       x="0"
       y="0"
       id="page3436"
       width="629.76001"
       height="572.30798" />
  </sodipodi:namedview>
  <g
     id="g3438"
     inkscape:groupmode="layer"
     inkscape:label="Page 1"
     transform="matrix(1.3333333,0,0,1.3333333,0,1.03077e-5)">
    <path
       d="m 347.316,148.074 c 0,-2.23 1.832,-4.051 4.051,-4.051 2.231,0 4.051,1.821 4.051,4.051 0,2.223 -1.82,4.051 -4.051,4.051 -2.219,0 -4.051,-1.828 -4.051,-4.051"
       style="fill:#000000;fill-opacity:1;fill-rule:nonzero;stroke:none"
       id="path3442" />
    <path
       d="m 211.066,288.074 c 0,-2.23 1.832,-4.051 4.051,-4.051 2.231,0 4.051,1.821 4.051,4.051 0,2.231 -1.82,4.051 -4.051,4.051 -2.219,0 -4.051,-1.82 -4.051,-4.051"
       style="fill:#000000;fill-opacity:1;fill-rule:nonzero;stroke:none"
       id="path3444" />
    <path
       d="m 182.117,278.816 c 0,-2.23 1.821,-4.05 4.051,-4.05 2.23,0 4.051,1.82 4.051,4.05 0,2.219 -1.821,4.047 -4.051,4.047 -2.23,0 -4.051,-1.828 -4.051,-4.047"
       style="fill:#000000;fill-opacity:1;fill-rule:nonzero;stroke:none"
       id="path3446" />
    <path
       d="m 197.09,292.426 c 0,-2.231 1.816,-4.051 4.047,-4.051 2.222,0 4.051,1.82 4.051,4.051 0,2.23 -1.829,4.051 -4.051,4.051 -2.231,0 -4.047,-1.821 -4.047,-4.051"
       style="fill:#000000;fill-opacity:1;fill-rule:nonzero;stroke:none"
       id="path3448" />
    <path
       d="m 190.996,289.453 c 0,-2.219 1.82,-4.047 4.051,-4.047 2.223,0 4.051,1.828 4.051,4.047 0,2.231 -1.828,4.051 -4.051,4.051 -2.231,0 -4.051,-1.82 -4.051,-4.051"
       style="fill:#000000;fill-opacity:1;fill-rule:nonzero;stroke:none"
       id="path3450" />
    <path
       d="m 164.156,323.215 c 0,-2.231 1.832,-4.051 4.051,-4.051 2.231,0 4.051,1.82 4.051,4.051 0,2.23 -1.82,4.051 -4.051,4.051 -2.219,0 -4.051,-1.821 -4.051,-4.051"
       style="fill:#000000;fill-opacity:1;fill-rule:nonzero;stroke:none"
       id="path3452" />
    <path
       d="m 196.418,232.594 c 0,-2.231 1.82,-4.047 4.051,-4.047 2.23,0 4.051,1.816 4.051,4.047 0,2.222 -1.821,4.051 -4.051,4.051 -2.231,0 -4.051,-1.829 -4.051,-4.051"
       style="fill:#000000;fill-opacity:1;fill-rule:nonzero;stroke:none"
       id="path3454" />
    <path
       d="m 164.156,272.414 c 0,-2.23 1.832,-4.051 4.051,-4.051 2.231,0 4.051,1.821 4.051,4.051 0,2.223 -1.82,4.051 -4.051,4.051 -2.219,0 -4.051,-1.828 -4.051,-4.051"
       style="fill:#000000;fill-opacity:1;fill-rule:nonzero;stroke:none"
       id="path3456" />
    <path
       d="m 159.719,250.984 c 0,-2.23 1.828,-4.05 4.051,-4.05 2.226,0 4.046,1.82 4.046,4.05 0,2.231 -1.82,4.051 -4.046,4.051 -2.223,0 -4.051,-1.82 -4.051,-4.051"
       style="fill:#000000;fill-opacity:1;fill-rule:nonzero;stroke:none"
       id="path3458" />
    <path
       d="m 450.137,54.754 c 0,-2.219 1.82,-4.051 4.051,-4.051 2.23,0 4.05,1.832 4.05,4.051 0,2.23 -1.82,4.051 -4.05,4.051 -2.231,0 -4.051,-1.821 -4.051,-4.051"
       style="fill:#000000;fill-opacity:1;fill-rule:nonzero;stroke:none"
       id="path3460" />
    <path
       d="m 276.957,14.137 c 0,-2.231 1.82,-4.051 4.051,-4.051 2.23,0 4.051,1.82 4.051,4.051 0,2.226 -1.821,4.047 -4.051,4.047 -2.231,0 -4.051,-1.821 -4.051,-4.047"
       style="fill:#000000;fill-opacity:1;fill-rule:nonzero;stroke:none"
       id="path3462" />
    <path
       d="m 236.219,279.246 c 0,-2.23 1.82,-4.051 4.051,-4.051 2.218,0 4.046,1.821 4.046,4.051 0,2.231 -1.828,4.051 -4.046,4.051 -2.231,0 -4.051,-1.82 -4.051,-4.051"
       style="fill:#000000;fill-opacity:1;fill-rule:nonzero;stroke:none"
       id="path3464" />
    <path
       d="m 197.09,290.664 c 0,-2.23 1.816,-4.051 4.047,-4.051 2.222,0 4.051,1.821 4.051,4.051 0,2.223 -1.829,4.051 -4.051,4.051 -2.231,0 -4.047,-1.828 -4.047,-4.051"
       style="fill:#000000;fill-opacity:1;fill-rule:nonzero;stroke:none"
       id="path3466" />
    <path
       d="m 191.977,267.734 c 0,-2.23 1.82,-4.05 4.05,-4.05 2.231,0 4.051,1.82 4.051,4.05 0,2.219 -1.82,4.051 -4.051,4.051 -2.23,0 -4.05,-1.832 -4.05,-4.051"
       style="fill:#000000;fill-opacity:1;fill-rule:nonzero;stroke:none"
       id="path3468" />
    <path
       d="m 296.477,242.336 c 0,-2.231 1.832,-4.051 4.05,-4.051 2.231,0 4.051,1.82 4.051,4.051 0,2.23 -1.82,4.051 -4.051,4.051 -2.218,0 -4.05,-1.821 -4.05,-4.051"
       style="fill:#000000;fill-opacity:1;fill-rule:nonzero;stroke:none"
       id="path3470" />
    <path
       d="m 424.477,76.305 c 0,-2.219 1.832,-4.051 4.05,-4.051 2.231,0 4.051,1.832 4.051,4.051 0,2.23 -1.82,4.05 -4.051,4.05 -2.218,0 -4.05,-1.82 -4.05,-4.05"
       style="fill:#000000;fill-opacity:1;fill-rule:nonzero;stroke:none"
       id="path3472" />
    <path
       d="m 212.719,231.035 c 0,-2.23 1.828,-4.051 4.051,-4.051 2.226,0 4.046,1.821 4.046,4.051 0,2.231 -1.82,4.051 -4.046,4.051 -2.223,0 -4.051,-1.82 -4.051,-4.051"
       style="fill:#000000;fill-opacity:1;fill-rule:nonzero;stroke:none"
       id="path3474" />
    <path
       d="m 66.137,358.137 c 0,-2.231 1.82,-4.051 4.051,-4.051 2.23,0 4.05,1.82 4.05,4.051 0,2.226 -1.82,4.047 -4.05,4.047 -2.231,0 -4.051,-1.821 -4.051,-4.047"
       style="fill:#000000;fill-opacity:1;fill-rule:nonzero;stroke:none"
       id="path3476" />
    <path
       d="m 254.527,199.844 c 0,-2.231 1.821,-4.047 4.051,-4.047 2.219,0 4.051,1.816 4.051,4.047 0,2.23 -1.832,4.051 -4.051,4.051 -2.23,0 -4.051,-1.821 -4.051,-4.051"
       style="fill:#000000;fill-opacity:1;fill-rule:nonzero;stroke:none"
       id="path3478" />
    <path
       d="m 373.488,162.273 c 0,-2.226 1.821,-4.046 4.051,-4.046 2.231,0 4.051,1.82 4.051,4.046 0,2.231 -1.82,4.051 -4.051,4.051 -2.23,0 -4.051,-1.82 -4.051,-4.051"
       style="fill:#000000;fill-opacity:1;fill-rule:nonzero;stroke:none"
       id="path3480" />
    <path
       d="m 366.887,110.727 c 0,-2.231 1.82,-4.051 4.051,-4.051 2.23,0 4.05,1.82 4.05,4.051 0,2.226 -1.82,4.046 -4.05,4.046 -2.231,0 -4.051,-1.82 -4.051,-4.046"
       style="fill:#000000;fill-opacity:1;fill-rule:nonzero;stroke:none"
       id="path3482" />
    <path
       d="m 228.359,244.625 c 0,-2.23 1.821,-4.051 4.047,-4.051 2.231,0 4.051,1.821 4.051,4.051 0,2.23 -1.82,4.051 -4.051,4.051 -2.226,0 -4.047,-1.821 -4.047,-4.051"
       style="fill:#000000;fill-opacity:1;fill-rule:nonzero;stroke:none"
       id="path3484" />
    <path
       d="m 254.008,207.816 c 0,-2.23 1.832,-4.05 4.051,-4.05 2.23,0 4.05,1.82 4.05,4.05 0,2.231 -1.82,4.047 -4.05,4.047 -2.219,0 -4.051,-1.816 -4.051,-4.047"
       style="fill:#000000;fill-opacity:1;fill-rule:nonzero;stroke:none"
       id="path3486" />
    <g
       id="g3488"
       transform="scale(1,-1)">
      <path
         d="M 63.348,-371.895 H 456.227"
         style="fill:none;stroke:#000000;stroke-width:0.75;stroke-linecap:round;stroke-linejoin:round;stroke-miterlimit:10;stroke-dasharray:none;stroke-opacity:1"
         id="path3490" />
    </g>
    <g
       id="g3492"
       transform="scale(1,-1)">
      <path
         d="m 63.348,-371.895 v -7.199"
         style="fill:none;stroke:#000000;stroke-width:0.75;stroke-linecap:round;stroke-linejoin:round;stroke-miterlimit:10;stroke-dasharray:none;stroke-opacity:1"
         id="path3494" />
    </g>
    <g
       id="g3496"
       transform="scale(1,-1)">
      <path
         d="m 141.93,-371.895 v -7.199"
         style="fill:none;stroke:#000000;stroke-width:0.75;stroke-linecap:round;stroke-linejoin:round;stroke-miterlimit:10;stroke-dasharray:none;stroke-opacity:1"
         id="path3498" />
    </g>
    <g
       id="g3500"
       transform="scale(1,-1)">
      <path
         d="m 220.508,-371.895 v -7.199"
         style="fill:none;stroke:#000000;stroke-width:0.75;stroke-linecap:round;stroke-linejoin:round;stroke-miterlimit:10;stroke-dasharray:none;stroke-opacity:1"
         id="path3502" />
    </g>
    <g
       id="g3504"
       transform="scale(1,-1)">
      <path
         d="m 299.078,-371.895 v -7.199"
         style="fill:none;stroke:#000000;stroke-width:0.75;stroke-linecap:round;stroke-linejoin:round;stroke-miterlimit:10;stroke-dasharray:none;stroke-opacity:1"
         id="path3506" />
    </g>
    <g
       id="g3508"
       transform="scale(1,-1)">
      <path
         d="m 377.656,-371.895 v -7.199"
         style="fill:none;stroke:#000000;stroke-width:0.75;stroke-linecap:round;stroke-linejoin:round;stroke-miterlimit:10;stroke-dasharray:none;stroke-opacity:1"
         id="path3510" />
    </g>
    <g
       id="g3512"
       transform="scale(1,-1)">
      <path
         d="m 456.227,-371.895 v -7.199"
         style="fill:none;stroke:#000000;stroke-width:0.75;stroke-linecap:round;stroke-linejoin:round;stroke-miterlimit:10;stroke-dasharray:none;stroke-opacity:1"
         id="path3514" />
    </g>
    <text
       xml:space="preserve"
       style="font-variant:normal;font-weight:normal;font-size:12px;font-family:'Nimbus Sans';-inkscape-font-specification:NimbusSans-Regular;writing-mode:lr-tb;fill:#000000;fill-opacity:1;fill-rule:nonzero;stroke:none"
       id="text3518"
       x="46.667999"
       y="397.815"><tspan
         x="46.667999 53.34 60.012001 66.683998 73.356003 125.244 131.916 138.588 145.26001 151.93201 203.832 210.504 217.17599 223.84799 230.52 282.39798 289.06998 295.74197 302.414 309.08597 360.97397 367.64597 374.31799 380.98999 387.66199 439.54999 446.22198 452.89398 459.56598 466.23798"
         y="397.815"
         sodipodi:role="line"
         id="tspan3516">100002000030000400005000060000</tspan></text>
    <g
       id="g3520"
       transform="scale(1,-1)">
      <path
         d="m 54.828,-367.844 v 284.59"
         style="fill:none;stroke:#000000;stroke-width:0.75;stroke-linecap:round;stroke-linejoin:round;stroke-miterlimit:10;stroke-dasharray:none;stroke-opacity:1"
         id="path3522" />
    </g>
    <g
       id="g3524"
       transform="scale(1,-1)">
      <path
         d="M 54.828,-367.844 H 47.629"
         style="fill:none;stroke:#000000;stroke-width:0.75;stroke-linecap:round;stroke-linejoin:round;stroke-miterlimit:10;stroke-dasharray:none;stroke-opacity:1"
         id="path3526" />
    </g>
    <g
       id="g3528"
       transform="scale(1,-1)">
      <path
         d="M 54.828,-282.176 H 47.629"
         style="fill:none;stroke:#000000;stroke-width:0.75;stroke-linecap:round;stroke-linejoin:round;stroke-miterlimit:10;stroke-dasharray:none;stroke-opacity:1"
         id="path3530" />
    </g>
    <g
       id="g3532"
       transform="scale(1,-1)">
      <path
         d="M 54.828,-168.926 H 47.629"
         style="fill:none;stroke:#000000;stroke-width:0.75;stroke-linecap:round;stroke-linejoin:round;stroke-miterlimit:10;stroke-dasharray:none;stroke-opacity:1"
         id="path3534" />
    </g>
    <g
       id="g3536"
       transform="scale(1,-1)">
      <path
         d="M 54.828,-83.254 H 47.629"
         style="fill:none;stroke:#000000;stroke-width:0.75;stroke-linecap:round;stroke-linejoin:round;stroke-miterlimit:10;stroke-dasharray:none;stroke-opacity:1"
         id="path3538" />
    </g>
    <text
       xml:space="preserve"
       transform="rotate(-90)"
       style="font-variant:normal;font-weight:normal;font-size:12px;font-family:'Nimbus Sans';-inkscape-font-specification:NimbusSans-Regular;writing-mode:lr-tb;fill:#000000;fill-opacity:1;fill-rule:nonzero;stroke:none"
       id="text3542"
       x="-379.52499"
       y="37.547989"><tspan
         x="-379.52499 -372.853 -369.517 -362.845 -293.85699 -287.185 -283.849 -277.177 -180.60498 -173.93298 -170.59698 -163.92497 -94.936974 -88.264977 -84.928978 -78.256981"
         y="37.547989"
         sodipodi:role="line"
         id="tspan3540">0.010.020.050.10</tspan></text>
    <g
       id="g3544"
       transform="scale(1,-1)">
      <path
         d="m 54.828,-0.375 h 414.719 v -371.52 H 54.828 Z"
         style="fill:none;stroke:#000000;stroke-width:0.75;stroke-linecap:round;stroke-linejoin:round;stroke-miterlimit:10;stroke-dasharray:none;stroke-opacity:1"
         id="path3546" />
    </g>
    <text
       xml:space="preserve"
       style="font-variant:normal;font-weight:normal;font-size:12px;font-family:'Nimbus Sans';-inkscape-font-specification:NimbusSans-Regular;writing-mode:lr-tb;white-space:pre;inline-size:61.0496;fill:#000000;fill-opacity:1;fill-rule:nonzero;stroke:none"
       id="text3550"
       x="246.17799"
       y="426.61499"><tspan
         x="246.17799"
         y="426.61499"
         id="tspan544">Points</tspan></text>
    <text
       xml:space="preserve"
       transform="rotate(-90)"
       style="font-variant:normal;font-weight:normal;font-size:12px;font-family:'Nimbus Sans';-inkscape-font-specification:NimbusSans-Regular;writing-mode:lr-tb;white-space:pre;inline-size:157.798;fill:#000000;fill-opacity:1;fill-rule:nonzero;stroke:none"
       id="text3554"
       x="-261.97498"
       y="8.7480001"><tspan
         x="-261.97498"
         y="8.7480001"
         id="tspan546">Maximum Likelihood Strength</tspan></text>
    <text
       xml:space="preserve"
       style="font-variant:normal;font-weight:normal;font-size:10px;font-family:'Nimbus Sans';-inkscape-font-specification:NimbusSans-Regular;writing-mode:lr-tb;fill:#bebebe;fill-opacity:1;fill-rule:nonzero;stroke:none"
       id="text3602"
       x="358.56799"
       y="150.465"><tspan
         x="358.56799 365.23798 370.798 376.358 378.578 384.138"
         y="150.465"
         sodipodi:role="line"
         id="tspan3556">Andino</tspan><tspan
         x="222.31799 228.98799 234.54799 240.10799 243.43799 248.99799"
         y="290.465"
         sodipodi:role="line"
         id="tspan3558">Bourez</tspan><tspan
         x="193.368 200.03799 205.59799 210.59799 216.15799 221.71799"
         y="281.20499"
         sodipodi:role="line"
         id="tspan3560">Buchan</tspan><tspan
         x="164.838 172.058 177.618 179.838 182.058 184.278 189.838 195.39799"
         y="305.315"
         sodipodi:role="line"
         id="tspan3562">Callinan</tspan><tspan
         x="139.24799 146.46799 152.028 155.60799 163.93799 166.15799 171.15799 176.71799 182.278 187.838"
         y="291.85501"
         sodipodi:role="line"
         id="tspan3564">Carmichael</tspan><tspan
         x="175.40799 182.62799 188.18799 190.96799 193.74799 195.96799"
         y="325.60498"
         sodipodi:role="line"
         id="tspan3566">Coffin</tspan><tspan
         x="152.168 159.388 164.948 167.168 172.728 178.28799 180.508 186.06799 188.84799"
         y="234.98499"
         sodipodi:role="line"
         id="tspan3568">Colapinto</tspan><tspan
         x="124.40799 131.62799 135.10799 137.32799 142.32799 147.88799 153.44798 156.22798"
         y="274.80499"
         sodipodi:role="line"
         id="tspan3570">Crisanto</tspan><tspan
         x="170.96799 178.18799 183.74799 186.97798"
         y="253.37498"
         sodipodi:role="line"
         id="tspan3572">Dora</tspan><tspan
         x="408.888 414.698 420.258 423.58798 426.918 432.478 434.698 437.92798"
         y="57.155003"
         sodipodi:role="line"
         id="tspan3574">Ferreira</tspan><tspan
         x="288.20801 294.31799 296.53799 302.09799 305.42801 310.98801 316.548 321.548"
         y="16.524998"
         sodipodi:role="line"
         id="tspan3576">Florence</tspan><tspan
         x="247.46797 253.57797 255.79797 261.35797 264.68799 270.24799"
         y="281.63501"
         sodipodi:role="line"
         id="tspan3578">Flores</tspan><tspan
         x="208.338 214.448 217.778 223.338 228.89799 233.89799 236.67799 242.23799 247.79799"
         y="302.05499"
         sodipodi:role="line"
         id="tspan3580">Freestone</tspan><tspan
         x="203.228 206.008 211.56799 217.12799 219.34799 221.56799"
         y="270.125"
         sodipodi:role="line"
         id="tspan3582">Ibelli</tspan><tspan
         x="307.728 310.508 316.06799 321.62799 324.858 330.418 335.418 340.978"
         y="244.72501"
         sodipodi:role="line"
         id="tspan3584">Igarashi</tspan><tspan
         x="435.728 444.05798 449.61798 455.17798 457.39798 462.95798"
         y="78.704994"
         sodipodi:role="line"
         id="tspan3586">Medina</tspan><tspan
         x="223.96799 232.29797 237.85799 243.41798 245.63799"
         y="233.425"
         sodipodi:role="line"
         id="tspan3588">Moniz</tspan><tspan
         x="77.388 85.717987 91.277985 94.507996 100.06799 102.28799"
         y="360.52502"
         sodipodi:role="line"
         id="tspan3590">Morais</tspan><tspan
         x="265.77798 272.44797 274.66797 280.22797 283.00797 288.56799"
         y="202.235"
         sodipodi:role="line"
         id="tspan3592">Slater</tspan><tspan
         x="384.73801 391.40799 399.73801 401.95801 404.73801"
         y="164.66499"
         sodipodi:role="line"
         id="tspan3594">Smith</tspan><tspan
         x="333.138 338.048 343.608 345.828 351.388 356.948"
         y="113.115"
         sodipodi:role="line"
         id="tspan3596">Toledo</tspan><tspan
         x="239.60799 249.04799 251.26799 253.48799 258.48798 264.048"
         y="247.01498"
         sodipodi:role="line"
         id="tspan3598">Wilson</tspan><tspan
         x="223.25798 232.69798 236.17798 238.39798 243.95798 249.51797"
         y="210.20499"
         sodipodi:role="line"
         id="tspan3600">Wright</tspan></text>
    <g
       id="g3604">
      <g
         id="g3606"
         clip-path="url(#clipPath3610)">
        <g
           id="g3612">
          <g
             id="g3614">
            <g
               id="g3616"
               clip-path="url(#clipPath3620)">
              <g
                 id="g3622">
                <g
                   id="g3624"
                   transform="scale(1,-1)">
                  <path
                     d="M 54.828,-379.395 469.547,-44.766"
                     style="fill:none;stroke:#000000;stroke-width:0.75;stroke-linecap:round;stroke-linejoin:round;stroke-miterlimit:10;stroke-dasharray:none;stroke-opacity:1"
                     id="path3626" />
                </g>
              </g>
            </g>
          </g>
        </g>
        <g
           id="g3628"
           transform="scale(1,-1)">
          <path
             d="m 210.797,-293.594 c -0.567,3.328 -0.09,3.84 -2.242,6.176 -2.153,2.34 -4.598,0.504 -4.598,0.504"
             style="fill:none;stroke:#000000;stroke-width:0.75;stroke-linecap:butt;stroke-linejoin:miter;stroke-miterlimit:4;stroke-dasharray:none;stroke-opacity:1"
             id="path3630" />
        </g>
      </g>
    </g>
  </g>
</svg>
