<?xml version="1.0" encoding="UTF-8" standalone="no"?>
<!-- Created with Inkscape (http://www.inkscape.org/) -->

<svg
   version="1.1"
   id="svg2"
   xml:space="preserve"
   width="672"
   height="672"
   viewBox="0 0 672 672"
   sodipodi:docname="directlogplotofstrengths.svg"
   inkscape:version="1.1 (ce6663b3b7, 2021-05-25)"
   xmlns:inkscape="http://www.inkscape.org/namespaces/inkscape"
   xmlns:sodipodi="http://sodipodi.sourceforge.net/DTD/sodipodi-0.dtd"
   xmlns="http://www.w3.org/2000/svg"
   xmlns:svg="http://www.w3.org/2000/svg"><defs
     id="defs6"><clipPath
       clipPathUnits="userSpaceOnUse"
       id="clipPath18"><path
         d="M 59.04,73.44 H 473.76 V 444.96 H 59.04 Z"
         id="path16" /></clipPath><clipPath
       clipPathUnits="userSpaceOnUse"
       id="clipPath140"><path
         d="M 59.04,73.44 H 473.76 V 444.96 H 59.04 Z"
         id="path138" /></clipPath></defs><sodipodi:namedview
     id="namedview4"
     pagecolor="#ffffff"
     bordercolor="#666666"
     borderopacity="1.0"
     inkscape:pageshadow="2"
     inkscape:pageopacity="0.0"
     inkscape:pagecheckerboard="0"
     showgrid="false"
     inkscape:zoom="4.4783429"
     inkscape:cx="386.19195"
     inkscape:cy="478.19027"
     inkscape:window-width="1294"
     inkscape:window-height="704"
     inkscape:window-x="72"
     inkscape:window-y="27"
     inkscape:window-maximized="1"
     inkscape:current-layer="g8" /><g
     id="g8"
     inkscape:groupmode="layer"
     inkscape:label="directlogplotofstrengths"
     transform="matrix(1.3333333,0,0,-1.3333333,0,672)"><g
       id="g10" /><g
       id="g12"><g
         id="g14"
         clip-path="url(#clipPath18)"><path
           d="m 399.99,297.26 c 0,1.49 1.21,2.7 2.7,2.7 1.48,0 2.7,-1.21 2.7,-2.7 0,-1.48 -1.22,-2.7 -2.7,-2.7 -1.49,0 -2.7,1.22 -2.7,2.7"
           style="fill:#000000;fill-opacity:1;fill-rule:nonzero;stroke:none"
           id="path20" /><path
           d="m 295.27,157.26 c 0,1.49 1.22,2.7 2.7,2.7 1.49,0 2.7,-1.21 2.7,-2.7 0,-1.48 -1.21,-2.7 -2.7,-2.7 -1.48,0 -2.7,1.22 -2.7,2.7"
           style="fill:#000000;fill-opacity:1;fill-rule:nonzero;stroke:none"
           id="path22" /><path
           d="m 265,166.52 c 0,1.49 1.21,2.7 2.7,2.7 1.48,0 2.7,-1.21 2.7,-2.7 0,-1.48 -1.22,-2.7 -2.7,-2.7 -1.49,0 -2.7,1.22 -2.7,2.7"
           style="fill:#000000;fill-opacity:1;fill-rule:nonzero;stroke:none"
           id="path24" /><path
           d="m 281.15,152.91 c 0,1.48 1.22,2.7 2.7,2.7 1.49,0 2.7,-1.22 2.7,-2.7 0,-1.49 -1.21,-2.7 -2.7,-2.7 -1.48,0 -2.7,1.21 -2.7,2.7"
           style="fill:#000000;fill-opacity:1;fill-rule:nonzero;stroke:none"
           id="path26" /><path
           d="m 274.72,155.88 c 0,1.48 1.22,2.7 2.7,2.7 1.49,0 2.7,-1.22 2.7,-2.7 0,-1.49 -1.21,-2.7 -2.7,-2.7 -1.48,0 -2.7,1.21 -2.7,2.7"
           style="fill:#000000;fill-opacity:1;fill-rule:nonzero;stroke:none"
           id="path28" /><path
           d="m 243.95,122.12 c 0,1.49 1.22,2.7 2.7,2.7 1.49,0 2.7,-1.21 2.7,-2.7 0,-1.48 -1.21,-2.7 -2.7,-2.7 -1.48,0 -2.7,1.22 -2.7,2.7"
           style="fill:#000000;fill-opacity:1;fill-rule:nonzero;stroke:none"
           id="path30" /><path
           d="m 280.46,212.74 c 0,1.49 1.21,2.7 2.7,2.7 1.48,0 2.7,-1.21 2.7,-2.7 0,-1.48 -1.22,-2.7 -2.7,-2.7 -1.49,0 -2.7,1.22 -2.7,2.7"
           style="fill:#000000;fill-opacity:1;fill-rule:nonzero;stroke:none"
           id="path32" /><path
           d="m 243.95,172.92 c 0,1.49 1.22,2.7 2.7,2.7 1.49,0 2.7,-1.21 2.7,-2.7 0,-1.48 -1.21,-2.7 -2.7,-2.7 -1.48,0 -2.7,1.22 -2.7,2.7"
           style="fill:#000000;fill-opacity:1;fill-rule:nonzero;stroke:none"
           id="path34" /><path
           d="m 238.43,194.35 c 0,1.49 1.22,2.7 2.7,2.7 1.49,0 2.7,-1.21 2.7,-2.7 0,-1.48 -1.21,-2.7 -2.7,-2.7 -1.48,0 -2.7,1.22 -2.7,2.7"
           style="fill:#000000;fill-opacity:1;fill-rule:nonzero;stroke:none"
           id="path36" /><path
           d="m 455.7,390.58 c 0,1.48 1.21,2.7 2.7,2.7 1.48,0 2.7,-1.22 2.7,-2.7 0,-1.49 -1.22,-2.7 -2.7,-2.7 -1.49,0 -2.7,1.21 -2.7,2.7"
           style="fill:#000000;fill-opacity:1;fill-rule:nonzero;stroke:none"
           id="path38" /><path
           d="m 351.96,431.2 c 0,1.49 1.22,2.7 2.7,2.7 1.49,0 2.7,-1.21 2.7,-2.7 0,-1.48 -1.21,-2.7 -2.7,-2.7 -1.48,0 -2.7,1.22 -2.7,2.7"
           style="fill:#000000;fill-opacity:1;fill-rule:nonzero;stroke:none"
           id="path40" /><path
           d="m 318.62,166.09 c 0,1.48 1.21,2.7 2.7,2.7 1.48,0 2.7,-1.22 2.7,-2.7 0,-1.49 -1.22,-2.7 -2.7,-2.7 -1.49,0 -2.7,1.21 -2.7,2.7"
           style="fill:#000000;fill-opacity:1;fill-rule:nonzero;stroke:none"
           id="path42" /><path
           d="m 281.15,154.67 c 0,1.49 1.22,2.7 2.7,2.7 1.49,0 2.7,-1.21 2.7,-2.7 0,-1.48 -1.21,-2.7 -2.7,-2.7 -1.48,0 -2.7,1.22 -2.7,2.7"
           style="fill:#000000;fill-opacity:1;fill-rule:nonzero;stroke:none"
           id="path44" /><path
           d="m 275.77,177.6 c 0,1.49 1.22,2.7 2.7,2.7 1.49,0 2.7,-1.21 2.7,-2.7 0,-1.48 -1.21,-2.7 -2.7,-2.7 -1.48,0 -2.7,1.22 -2.7,2.7"
           style="fill:#000000;fill-opacity:1;fill-rule:nonzero;stroke:none"
           id="path46" /><path
           d="m 366.35,203 c 0,1.49 1.21,2.7 2.7,2.7 1.48,0 2.7,-1.21 2.7,-2.7 0,-1.48 -1.22,-2.7 -2.7,-2.7 -1.49,0 -2.7,1.22 -2.7,2.7"
           style="fill:#000000;fill-opacity:1;fill-rule:nonzero;stroke:none"
           id="path48" /><path
           d="m 443.03,369.03 c 0,1.48 1.22,2.7 2.7,2.7 1.49,0 2.7,-1.22 2.7,-2.7 0,-1.49 -1.21,-2.7 -2.7,-2.7 -1.48,0 -2.7,1.21 -2.7,2.7"
           style="fill:#000000;fill-opacity:1;fill-rule:nonzero;stroke:none"
           id="path50" /><path
           d="m 296.88,214.3 c 0,1.49 1.21,2.7 2.7,2.7 1.48,0 2.7,-1.21 2.7,-2.7 0,-1.48 -1.22,-2.7 -2.7,-2.7 -1.49,0 -2.7,1.22 -2.7,2.7"
           style="fill:#000000;fill-opacity:1;fill-rule:nonzero;stroke:none"
           id="path52" /><path
           d="m 71.7,87.2 c 0,1.48 1.21,2.7 2.7,2.7 1.48,0 2.7,-1.22 2.7,-2.7 0,-1.49 -1.22,-2.7 -2.7,-2.7 -1.49,0 -2.7,1.21 -2.7,2.7"
           style="fill:#000000;fill-opacity:1;fill-rule:nonzero;stroke:none"
           id="path54" /><path
           d="m 334.21,245.49 c 0,1.49 1.22,2.7 2.7,2.7 1.49,0 2.7,-1.21 2.7,-2.7 0,-1.48 -1.21,-2.7 -2.7,-2.7 -1.48,0 -2.7,1.22 -2.7,2.7"
           style="fill:#000000;fill-opacity:1;fill-rule:nonzero;stroke:none"
           id="path56" /><path
           d="m 415.52,283.06 c 0,1.49 1.22,2.7 2.7,2.7 1.49,0 2.7,-1.21 2.7,-2.7 0,-1.48 -1.21,-2.7 -2.7,-2.7 -1.48,0 -2.7,1.22 -2.7,2.7"
           style="fill:#000000;fill-opacity:1;fill-rule:nonzero;stroke:none"
           id="path58" /><path
           d="m 411.71,334.61 c 0,1.49 1.21,2.7 2.7,2.7 1.48,0 2.7,-1.21 2.7,-2.7 0,-1.48 -1.22,-2.7 -2.7,-2.7 -1.49,0 -2.7,1.22 -2.7,2.7"
           style="fill:#000000;fill-opacity:1;fill-rule:nonzero;stroke:none"
           id="path60" /><path
           d="m 311.58,200.71 c 0,1.49 1.21,2.7 2.7,2.7 1.48,0 2.7,-1.21 2.7,-2.7 0,-1.48 -1.22,-2.7 -2.7,-2.7 -1.49,0 -2.7,1.22 -2.7,2.7"
           style="fill:#000000;fill-opacity:1;fill-rule:nonzero;stroke:none"
           id="path62" /><path
           d="m 333.79,237.52 c 0,1.49 1.22,2.7 2.7,2.7 1.49,0 2.7,-1.21 2.7,-2.7 0,-1.48 -1.21,-2.7 -2.7,-2.7 -1.48,0 -2.7,1.22 -2.7,2.7"
           style="fill:#000000;fill-opacity:1;fill-rule:nonzero;stroke:none"
           id="path64" /></g></g><g
       id="g66"><path
         d="M 211.8,73.44 H 459.38"
         style="fill:none;stroke:#000000;stroke-width:0.75;stroke-linecap:round;stroke-linejoin:round;stroke-miterlimit:10;stroke-dasharray:none;stroke-opacity:1"
         id="path68" /><path
         d="m 211.8,73.44 v -7.2"
         style="fill:none;stroke:#000000;stroke-width:0.75;stroke-linecap:round;stroke-linejoin:round;stroke-miterlimit:10;stroke-dasharray:none;stroke-opacity:1"
         id="path70" /><path
         d="m 303.18,73.44 v -7.2"
         style="fill:none;stroke:#000000;stroke-width:0.75;stroke-linecap:round;stroke-linejoin:round;stroke-miterlimit:10;stroke-dasharray:none;stroke-opacity:1"
         id="path72" /><path
         d="m 368.01,73.44 v -7.2"
         style="fill:none;stroke:#000000;stroke-width:0.75;stroke-linecap:round;stroke-linejoin:round;stroke-miterlimit:10;stroke-dasharray:none;stroke-opacity:1"
         id="path74" /><path
         d="m 418.29,73.44 v -7.2"
         style="fill:none;stroke:#000000;stroke-width:0.75;stroke-linecap:round;stroke-linejoin:round;stroke-miterlimit:10;stroke-dasharray:none;stroke-opacity:1"
         id="path76" /><path
         d="m 459.38,73.44 v -7.2"
         style="fill:none;stroke:#000000;stroke-width:0.75;stroke-linecap:round;stroke-linejoin:round;stroke-miterlimit:10;stroke-dasharray:none;stroke-opacity:1"
         id="path78" /><text
         transform="matrix(1,0,0,-1,195.12,47.52)"
         style="font-variant:normal;font-weight:normal;font-size:12px;font-family:Helvetica;-inkscape-font-specification:Helvetica;writing-mode:lr-tb;fill:#000000;fill-opacity:1;fill-rule:nonzero;stroke:none"
         id="text82"><tspan
           x="0 6.6719999 13.344 20.016001 26.688"
           y="0"
           sodipodi:role="line"
           id="tspan80">20000</tspan></text><text
         transform="matrix(1,0,0,-1,286.5,47.52)"
         style="font-variant:normal;font-weight:normal;font-size:12px;font-family:Helvetica;-inkscape-font-specification:Helvetica;writing-mode:lr-tb;fill:#000000;fill-opacity:1;fill-rule:nonzero;stroke:none"
         id="text86"><tspan
           x="0 6.6719999 13.344 20.016001 26.688"
           y="0"
           sodipodi:role="line"
           id="tspan84">30000</tspan></text><text
         transform="matrix(1,0,0,-1,351.33,47.52)"
         style="font-variant:normal;font-weight:normal;font-size:12px;font-family:Helvetica;-inkscape-font-specification:Helvetica;writing-mode:lr-tb;fill:#000000;fill-opacity:1;fill-rule:nonzero;stroke:none"
         id="text90"><tspan
           x="0 6.6719999 13.344 20.016001 26.688"
           y="0"
           sodipodi:role="line"
           id="tspan88">40000</tspan></text><text
         transform="matrix(1,0,0,-1,401.61,47.52)"
         style="font-variant:normal;font-weight:normal;font-size:12px;font-family:Helvetica;-inkscape-font-specification:Helvetica;writing-mode:lr-tb;fill:#000000;fill-opacity:1;fill-rule:nonzero;stroke:none"
         id="text94"><tspan
           x="0 6.6719999 13.344 20.016001 26.688"
           y="0"
           sodipodi:role="line"
           id="tspan92">50000</tspan></text><path
         d="M 59.04,77.49 V 362.08"
         style="fill:none;stroke:#000000;stroke-width:0.75;stroke-linecap:round;stroke-linejoin:round;stroke-miterlimit:10;stroke-dasharray:none;stroke-opacity:1"
         id="path96" /><path
         d="m 59.04,77.49 h -7.2"
         style="fill:none;stroke:#000000;stroke-width:0.75;stroke-linecap:round;stroke-linejoin:round;stroke-miterlimit:10;stroke-dasharray:none;stroke-opacity:1"
         id="path98" /><path
         d="m 59.04,163.16 h -7.2"
         style="fill:none;stroke:#000000;stroke-width:0.75;stroke-linecap:round;stroke-linejoin:round;stroke-miterlimit:10;stroke-dasharray:none;stroke-opacity:1"
         id="path100" /><path
         d="m 59.04,276.41 h -7.2"
         style="fill:none;stroke:#000000;stroke-width:0.75;stroke-linecap:round;stroke-linejoin:round;stroke-miterlimit:10;stroke-dasharray:none;stroke-opacity:1"
         id="path102" /><path
         d="m 59.04,362.08 h -7.2"
         style="fill:none;stroke:#000000;stroke-width:0.75;stroke-linecap:round;stroke-linejoin:round;stroke-miterlimit:10;stroke-dasharray:none;stroke-opacity:1"
         id="path104" /><text
         transform="matrix(0,1,1,0,41.76,65.81)"
         style="font-variant:normal;font-weight:normal;font-size:12px;font-family:Helvetica;-inkscape-font-specification:Helvetica;writing-mode:lr-tb;fill:#000000;fill-opacity:1;fill-rule:nonzero;stroke:none"
         id="text108"><tspan
           x="0 6.6719999 10.008 16.68"
           y="0"
           sodipodi:role="line"
           id="tspan106">0.01</tspan></text><text
         transform="matrix(0,1,1,0,41.76,151.48)"
         style="font-variant:normal;font-weight:normal;font-size:12px;font-family:Helvetica;-inkscape-font-specification:Helvetica;writing-mode:lr-tb;fill:#000000;fill-opacity:1;fill-rule:nonzero;stroke:none"
         id="text112"><tspan
           x="0 6.6719999 10.008 16.68"
           y="0"
           sodipodi:role="line"
           id="tspan110">0.02</tspan></text><text
         transform="matrix(0,1,1,0,41.76,264.73)"
         style="font-variant:normal;font-weight:normal;font-size:12px;font-family:Helvetica;-inkscape-font-specification:Helvetica;writing-mode:lr-tb;fill:#000000;fill-opacity:1;fill-rule:nonzero;stroke:none"
         id="text116"><tspan
           x="0 6.6719999 10.008 16.68"
           y="0"
           sodipodi:role="line"
           id="tspan114">0.05</tspan></text><text
         transform="matrix(0,1,1,0,41.76,350.4)"
         style="font-variant:normal;font-weight:normal;font-size:12px;font-family:Helvetica;-inkscape-font-specification:Helvetica;writing-mode:lr-tb;fill:#000000;fill-opacity:1;fill-rule:nonzero;stroke:none"
         id="text120"><tspan
           x="0 6.6719999 10.008 16.68"
           y="0"
           sodipodi:role="line"
           id="tspan118">0.10</tspan></text><path
         d="M 59.04,73.44 H 473.76 V 444.96 H 59.04 Z"
         style="fill:none;stroke:#000000;stroke-width:0.75;stroke-linecap:round;stroke-linejoin:round;stroke-miterlimit:10;stroke-dasharray:none;stroke-opacity:1"
         id="path122" /></g><g
       id="g124"><text
         transform="matrix(1,0,0,-1,250.39,18.72)"
         style="font-variant:normal;font-weight:normal;font-size:12px;font-family:Helvetica;-inkscape-font-specification:Helvetica;writing-mode:lr-tb;fill:#000000;fill-opacity:1;fill-rule:nonzero;stroke:none"
         id="text128"><tspan
           x="0 6.6719999 13.344 16.007999 22.68 26.016001"
           y="0"
           sodipodi:role="line"
           id="tspan126">points</tspan></text><text
         transform="matrix(0,1,1,0,12.96,183.36)"
         style="font-variant:normal;font-weight:normal;font-size:12px;font-family:Helvetica;-inkscape-font-specification:Helvetica;writing-mode:lr-tb;fill:#000000;fill-opacity:1;fill-rule:nonzero;stroke:none"
         id="text132"><tspan
           x="0 9.9960003 16.667999 22.667999 25.332001 35.208 41.880001 51.875999 55.212002 57.875999 60.540001 66.300003 72.972 75.636002 78.300003 84.972 91.643997 98.316002 104.988 108.324 114.324 117.66 121.656 128.328 135 141.672 145.008"
           y="0"
           sodipodi:role="line"
           id="tspan130">maximum likelihood strength</tspan></text></g><text
       transform="scale(1,-1)"
       style="font-variant:normal;font-weight:normal;font-size:6px;font-family:Helvetica;-inkscape-font-specification:Helvetica;writing-mode:lr-tb;fill:#bebebe;fill-opacity:1;fill-rule:nonzero;stroke:none"
       id="text144"
       x="409.89001"
       y="-295.82999"><tspan
         x="409.89001 413.892 417.228 420.564 421.896 425.23199"
         y="-295.82999"
         sodipodi:role="line"
         id="tspan142">Andino</tspan></text><text
       transform="scale(1,-1)"
       style="font-variant:normal;font-weight:normal;font-size:6px;font-family:Helvetica;-inkscape-font-specification:Helvetica;writing-mode:lr-tb;fill:#bebebe;fill-opacity:1;fill-rule:nonzero;stroke:none"
       id="text148"
       x="305.17001"
       y="-155.83"><tspan
         x="305.17001 309.172 312.508 315.84399 317.84201 321.17801"
         y="-155.83"
         sodipodi:role="line"
         id="tspan146">Bourez</tspan></text><text
       transform="scale(1,-1)"
       style="font-variant:normal;font-weight:normal;font-size:6px;font-family:Helvetica;-inkscape-font-specification:Helvetica;writing-mode:lr-tb;fill:#bebebe;fill-opacity:1;fill-rule:nonzero;stroke:none"
       id="text152"
       x="271.66983"
       y="-165.09"><tspan
         x="271.66983 275.67184 279.00784 282.00784 285.34384 288.67984"
         y="-165.09"
         sodipodi:role="line"
         id="tspan150">Buchan</tspan></text><text
       transform="scale(1,-1)"
       style="font-variant:normal;font-weight:normal;font-size:6px;font-family:Helvetica;-inkscape-font-specification:Helvetica;writing-mode:lr-tb;fill:#bebebe;fill-opacity:1;fill-rule:nonzero;stroke:none"
       id="text156"
       x="287.23071"
       y="-147.63722"><tspan
         x="287.23071 291.56271 294.89871 296.23071 297.56271 298.89471 302.23071 305.56671"
         y="-147.63722"
         sodipodi:role="line"
         id="tspan154">Callinan</tspan></text><text
       transform="scale(1,-1)"
       style="font-variant:normal;font-weight:normal;font-size:6px;font-family:Helvetica;-inkscape-font-specification:Helvetica;writing-mode:lr-tb;fill:#bebebe;fill-opacity:1;fill-rule:nonzero;stroke:none"
       id="text160"
       x="242.50804"
       y="-154.19896"><tspan
         x="242.50804 246.84004 250.17604 252.32405 257.32202 258.65402 261.65402 264.99002 268.32602 271.66202"
         y="-154.19896"
         sodipodi:role="line"
         id="tspan158">Carmichael</tspan></text><text
       transform="scale(1,-1)"
       style="font-variant:normal;font-weight:normal;font-size:6px;font-family:Helvetica;-inkscape-font-specification:Helvetica;writing-mode:lr-tb;fill:#bebebe;fill-opacity:1;fill-rule:nonzero;stroke:none"
       id="text164"
       x="253.85001"
       y="-120.68"><tspan
         x="253.85001 258.18201 261.51801 263.186 264.854 266.186"
         y="-120.68"
         sodipodi:role="line"
         id="tspan162">Coffin</tspan></text><text
       transform="scale(1,-1)"
       style="font-variant:normal;font-weight:normal;font-size:6px;font-family:Helvetica;-inkscape-font-specification:Helvetica;writing-mode:lr-tb;fill:#bebebe;fill-opacity:1;fill-rule:nonzero;stroke:none"
       id="text168"
       x="264.57983"
       y="-218.13847"><tspan
         x="264.57983 268.91183 272.24786 273.57983 276.91586 280.25186 281.58386 284.91986 286.58786"
         y="-218.13847"
         sodipodi:role="line"
         id="tspan166">Colapinto</tspan></text><text
       transform="scale(1,-1)"
       style="font-variant:normal;font-weight:normal;font-size:6px;font-family:Helvetica;-inkscape-font-specification:Helvetica;writing-mode:lr-tb;fill:#bebebe;fill-opacity:1;fill-rule:nonzero;stroke:none"
       id="text172"
       x="253.85001"
       y="-171.49001"><tspan
         x="253.85001 258.18201 260.26999 261.60199 264.60199 267.93799 271.27399 272.94199"
         y="-171.49001"
         sodipodi:role="line"
         id="tspan170">Crisanto</tspan></text><text
       transform="scale(1,-1)"
       style="font-variant:normal;font-weight:normal;font-size:6px;font-family:Helvetica;-inkscape-font-specification:Helvetica;writing-mode:lr-tb;fill:#bebebe;fill-opacity:1;fill-rule:nonzero;stroke:none"
       id="text176"
       x="248.33"
       y="-192.91"><tspan
         x="248.33 252.662 255.998 257.936"
         y="-192.91"
         sodipodi:role="line"
         id="tspan174">Dora</tspan></text><text
       transform="scale(1,-1)"
       style="font-variant:normal;font-weight:normal;font-size:6px;font-family:Helvetica;-inkscape-font-specification:Helvetica;writing-mode:lr-tb;fill:#bebebe;fill-opacity:1;fill-rule:nonzero;stroke:none"
       id="text180"
       x="465.60001"
       y="-389.14001"><tspan
         x="465.60001 469.086 472.422 474.42001 476.418 479.754 481.086 483.02399"
         y="-389.14001"
         sodipodi:role="line"
         id="tspan178">Ferreira</tspan></text><text
       transform="scale(1,-1)"
       style="font-variant:normal;font-weight:normal;font-size:6px;font-family:Helvetica;-inkscape-font-specification:Helvetica;writing-mode:lr-tb;fill:#bebebe;fill-opacity:1;fill-rule:nonzero;stroke:none"
       id="text184"
       x="361.85999"
       y="-429.76001"><tspan
         x="361.85999 365.526 366.858 370.194 372.19199 375.52802 378.86401 381.86401"
         y="-429.76001"
         sodipodi:role="line"
         id="tspan182">Florence</tspan></text><text
       transform="scale(1,-1)"
       style="font-variant:normal;font-weight:normal;font-size:6px;font-family:Helvetica;-inkscape-font-specification:Helvetica;writing-mode:lr-tb;fill:#bebebe;fill-opacity:1;fill-rule:nonzero;stroke:none"
       id="text188"
       x="328.51999"
       y="-164.64999"><tspan
         x="328.51999 332.186 333.51801 336.854 338.85199 342.18799"
         y="-164.64999"
         sodipodi:role="line"
         id="tspan186">Flores</tspan></text><text
       transform="scale(1,-1)"
       style="font-variant:normal;font-weight:normal;font-size:6px;font-family:Helvetica;-inkscape-font-specification:Helvetica;writing-mode:lr-tb;fill:#bebebe;fill-opacity:1;fill-rule:nonzero;stroke:none"
       id="text192"
       x="290.18481"
       y="-169.75992"><tspan
         x="290.18481 293.85083 295.84882 299.18481 302.52081 305.52081 307.18881 310.52484 313.86084"
         y="-169.75992"
         sodipodi:role="line"
         id="tspan190">Freestone</tspan></text><text
       transform="scale(1,-1)"
       style="font-variant:normal;font-weight:normal;font-size:6px;font-family:Helvetica;-inkscape-font-specification:Helvetica;writing-mode:lr-tb;fill:#bebebe;fill-opacity:1;fill-rule:nonzero;stroke:none"
       id="text196"
       x="285.67001"
       y="-176.17"><tspan
         x="285.67001 287.33801 290.67401 294.01001 295.34201 296.67401"
         y="-176.17"
         sodipodi:role="line"
         id="tspan194">Ibelli</tspan></text><text
       transform="scale(1,-1)"
       style="font-variant:normal;font-weight:normal;font-size:6px;font-family:Helvetica;-inkscape-font-specification:Helvetica;writing-mode:lr-tb;fill:#bebebe;fill-opacity:1;fill-rule:nonzero;stroke:none"
       id="text200"
       x="376.25"
       y="-201.57001"><tspan
         x="376.25 377.918 381.254 384.59 386.52802 389.86401 392.86401 396.20001"
         y="-201.57001"
         sodipodi:role="line"
         id="tspan198">Igarashi</tspan></text><text
       transform="scale(1,-1)"
       style="font-variant:normal;font-weight:normal;font-size:6px;font-family:Helvetica;-inkscape-font-specification:Helvetica;writing-mode:lr-tb;fill:#bebebe;fill-opacity:1;fill-rule:nonzero;stroke:none"
       id="text204"
       x="452.92999"
       y="-367.59"><tspan
         x="452.92999 457.92801 461.26401 464.60001 465.93201 469.26801"
         y="-367.59"
         sodipodi:role="line"
         id="tspan202">Medina</tspan></text><text
       transform="scale(1,-1)"
       style="font-variant:normal;font-weight:normal;font-size:6px;font-family:Helvetica;-inkscape-font-specification:Helvetica;writing-mode:lr-tb;fill:#bebebe;fill-opacity:1;fill-rule:nonzero;stroke:none"
       id="text208"
       x="306.78"
       y="-212.86"><tspan
         x="306.78 311.77802 315.11401 318.45001 319.78201"
         y="-212.86"
         sodipodi:role="line"
         id="tspan206">Moniz</tspan></text><text
       transform="scale(1,-1)"
       style="font-variant:normal;font-weight:normal;font-size:6px;font-family:Helvetica;-inkscape-font-specification:Helvetica;writing-mode:lr-tb;fill:#bebebe;fill-opacity:1;fill-rule:nonzero;stroke:none"
       id="text212"
       x="81.599998"
       y="-85.760002"><tspan
         x="81.599998 86.598 89.933998 91.872002 95.208 96.540001"
         y="-85.760002"
         sodipodi:role="line"
         id="tspan210">Morais</tspan></text><text
       transform="scale(1,-1)"
       style="font-variant:normal;font-weight:normal;font-size:6px;font-family:Helvetica;-inkscape-font-specification:Helvetica;writing-mode:lr-tb;fill:#bebebe;fill-opacity:1;fill-rule:nonzero;stroke:none"
       id="text216"
       x="344.10999"
       y="-244.05"><tspan
         x="344.10999 348.112 349.444 352.78 354.448 357.784"
         y="-244.05"
         sodipodi:role="line"
         id="tspan214">Slater</tspan></text><text
       transform="scale(1,-1)"
       style="font-variant:normal;font-weight:normal;font-size:6px;font-family:Helvetica;-inkscape-font-specification:Helvetica;writing-mode:lr-tb;fill:#bebebe;fill-opacity:1;fill-rule:nonzero;stroke:none"
       id="text220"
       x="425.42001"
       y="-281.63"><tspan
         x="425.42001 429.422 434.42001 435.75201 437.42001"
         y="-281.63"
         sodipodi:role="line"
         id="tspan218">Smith</tspan></text><text
       transform="scale(1,-1)"
       style="font-variant:normal;font-weight:normal;font-size:6px;font-family:Helvetica;-inkscape-font-specification:Helvetica;writing-mode:lr-tb;fill:#bebebe;fill-opacity:1;fill-rule:nonzero;stroke:none"
       id="text224"
       x="421.60999"
       y="-333.17999"><tspan
         x="421.60999 424.556 427.892 429.224 432.56 435.896"
         y="-333.17999"
         sodipodi:role="line"
         id="tspan222">Toledo</tspan></text><text
       transform="scale(1,-1)"
       style="font-variant:normal;font-weight:normal;font-size:6px;font-family:Helvetica;-inkscape-font-specification:Helvetica;writing-mode:lr-tb;fill:#bebebe;fill-opacity:1;fill-rule:nonzero;stroke:none"
       id="text228"
       x="321.48001"
       y="-199.28"><tspan
         x="321.48001 327.14401 328.47601 329.80801 332.80801 336.14401"
         y="-199.28"
         sodipodi:role="line"
         id="tspan226">Wilson</tspan></text><text
       transform="scale(1,-1)"
       style="font-variant:normal;font-weight:normal;font-size:6px;font-family:Helvetica;-inkscape-font-specification:Helvetica;writing-mode:lr-tb;fill:#bebebe;fill-opacity:1;fill-rule:nonzero;stroke:none"
       id="text232"
       x="343.69"
       y="-236.09"><tspan
         x="343.69 349.354 351.44199 352.77399 356.10999 359.44601"
         y="-236.09"
         sodipodi:role="line"
         id="tspan230">Wright</tspan></text><path
       d="M 59.04,0.37 473.76,360.46"
       style="fill:none;stroke:#000000;stroke-width:0.75;stroke-linecap:round;stroke-linejoin:round;stroke-miterlimit:10;stroke-dasharray:none;stroke-opacity:1"
       id="path234" /><path
       style="fill:none;stroke:#000000;stroke-width:0.22500001;stroke-linecap:butt;stroke-linejoin:miter;stroke-opacity:1;stroke-miterlimit:4;stroke-dasharray:none"
       d="M 300.48249,168.50396 287.13132,157.03663"
       id="path364"
       sodipodi:nodetypes="cc" /></g></svg>
