<?xml version="1.0" encoding="UTF-8" standalone="no"?>
<!-- Created with Inkscape (http://www.inkscape.org/) -->

<svg
   version="1.1"
   id="svg18"
   width="672"
   height="672"
   viewBox="0 0 672 672"
   sodipodi:docname="directplotofstrengths.svg"
   inkscape:version="1.2.1 (0f2f062aeb, 2022-09-21, custom)"
   xmlns:inkscape="http://www.inkscape.org/namespaces/inkscape"
   xmlns:sodipodi="http://sodipodi.sourceforge.net/DTD/sodipodi-0.dtd"
   xmlns="http://www.w3.org/2000/svg"
   xmlns:svg="http://www.w3.org/2000/svg">
  <defs
     id="defs22">
    <clipPath
       clipPathUnits="userSpaceOnUse"
       id="clipPath250">
      <path
         d="M 59.04,73.44 H 473.76 V 444.96 H 59.04 Z"
         id="path248" />
    </clipPath>
  </defs>
  <sodipodi:namedview
     id="namedview20"
     pagecolor="#ffffff"
     bordercolor="#666666"
     borderopacity="1.0"
     inkscape:showpageshadow="2"
     inkscape:pageopacity="0.0"
     inkscape:pagecheckerboard="0"
     inkscape:deskcolor="#d1d1d1"
     showgrid="false"
     inkscape:zoom="2.8333333"
     inkscape:cx="80.117648"
     inkscape:cy="536.64707"
     inkscape:window-width="1292"
     inkscape:window-height="704"
     inkscape:window-x="0"
     inkscape:window-y="0"
     inkscape:window-maximized="1"
     inkscape:current-layer="g26">
    <inkscape:page
       x="0"
       y="0"
       id="page24"
       width="672"
       height="672" />
  </sodipodi:namedview>
  <g
     id="g26"
     inkscape:groupmode="layer"
     inkscape:label="Page 1"
     transform="matrix(1.3333333,0,0,-1.3333333,0,672)">
    <g
       id="g28" />
    <path
       d="m 351.53,297.26 c 0,2.23 1.83,4.05 4.05,4.05 2.23,0 4.05,-1.82 4.05,-4.05 0,-2.22 -1.82,-4.05 -4.05,-4.05 -2.22,0 -4.05,1.83 -4.05,4.05"
       style="fill:#000000;fill-opacity:1;fill-rule:nonzero;stroke:none"
       id="path32" />
    <path
       d="m 215.28,157.26 c 0,2.23 1.83,4.05 4.05,4.05 2.23,0 4.05,-1.82 4.05,-4.05 0,-2.23 -1.82,-4.05 -4.05,-4.05 -2.22,0 -4.05,1.82 -4.05,4.05"
       style="fill:#000000;fill-opacity:1;fill-rule:nonzero;stroke:none"
       id="path34" />
    <path
       d="m 186.33,166.52 c 0,2.23 1.82,4.05 4.05,4.05 2.23,0 4.05,-1.82 4.05,-4.05 0,-2.22 -1.82,-4.05 -4.05,-4.05 -2.23,0 -4.05,1.83 -4.05,4.05"
       style="fill:#000000;fill-opacity:1;fill-rule:nonzero;stroke:none"
       id="path36" />
    <path
       d="m 201.3,152.91 c 0,2.23 1.82,4.05 4.05,4.05 2.22,0 4.05,-1.82 4.05,-4.05 0,-2.23 -1.83,-4.05 -4.05,-4.05 -2.23,0 -4.05,1.82 -4.05,4.05"
       style="fill:#000000;fill-opacity:1;fill-rule:nonzero;stroke:none"
       id="path38" />
    <path
       d="m 195.21,155.88 c 0,2.22 1.82,4.05 4.05,4.05 2.22,0 4.05,-1.83 4.05,-4.05 0,-2.23 -1.83,-4.05 -4.05,-4.05 -2.23,0 -4.05,1.82 -4.05,4.05"
       style="fill:#000000;fill-opacity:1;fill-rule:nonzero;stroke:none"
       id="path40" />
    <path
       d="m 168.37,122.12 c 0,2.23 1.83,4.05 4.05,4.05 2.23,0 4.05,-1.82 4.05,-4.05 0,-2.23 -1.82,-4.05 -4.05,-4.05 -2.22,0 -4.05,1.82 -4.05,4.05"
       style="fill:#000000;fill-opacity:1;fill-rule:nonzero;stroke:none"
       id="path42" />
    <path
       d="m 200.63,212.74 c 0,2.23 1.82,4.05 4.05,4.05 2.23,0 4.05,-1.82 4.05,-4.05 0,-2.22 -1.82,-4.05 -4.05,-4.05 -2.23,0 -4.05,1.83 -4.05,4.05"
       style="fill:#000000;fill-opacity:1;fill-rule:nonzero;stroke:none"
       id="path44" />
    <path
       d="m 168.37,172.92 c 0,2.23 1.83,4.05 4.05,4.05 2.23,0 4.05,-1.82 4.05,-4.05 0,-2.22 -1.82,-4.05 -4.05,-4.05 -2.22,0 -4.05,1.83 -4.05,4.05"
       style="fill:#000000;fill-opacity:1;fill-rule:nonzero;stroke:none"
       id="path46" />
    <path
       d="m 163.93,194.35 c 0,2.23 1.83,4.05 4.05,4.05 2.23,0 4.05,-1.82 4.05,-4.05 0,-2.23 -1.82,-4.05 -4.05,-4.05 -2.22,0 -4.05,1.82 -4.05,4.05"
       style="fill:#000000;fill-opacity:1;fill-rule:nonzero;stroke:none"
       id="path48" />
    <path
       d="m 454.35,390.58 c 0,2.22 1.82,4.05 4.05,4.05 2.23,0 4.05,-1.83 4.05,-4.05 0,-2.23 -1.82,-4.05 -4.05,-4.05 -2.23,0 -4.05,1.82 -4.05,4.05"
       style="fill:#000000;fill-opacity:1;fill-rule:nonzero;stroke:none"
       id="path50" />
    <path
       d="m 281.17,431.2 c 0,2.23 1.82,4.05 4.05,4.05 2.23,0 4.05,-1.82 4.05,-4.05 0,-2.23 -1.82,-4.05 -4.05,-4.05 -2.23,0 -4.05,1.82 -4.05,4.05"
       style="fill:#000000;fill-opacity:1;fill-rule:nonzero;stroke:none"
       id="path52" />
    <path
       d="m 240.43,166.09 c 0,2.23 1.82,4.05 4.05,4.05 2.22,0 4.05,-1.82 4.05,-4.05 0,-2.23 -1.83,-4.05 -4.05,-4.05 -2.23,0 -4.05,1.82 -4.05,4.05"
       style="fill:#000000;fill-opacity:1;fill-rule:nonzero;stroke:none"
       id="path54" />
    <path
       d="m 201.3,154.67 c 0,2.23 1.82,4.05 4.05,4.05 2.22,0 4.05,-1.82 4.05,-4.05 0,-2.22 -1.83,-4.05 -4.05,-4.05 -2.23,0 -4.05,1.83 -4.05,4.05"
       style="fill:#000000;fill-opacity:1;fill-rule:nonzero;stroke:none"
       id="path56" />
    <path
       d="m 196.19,177.6 c 0,2.23 1.82,4.05 4.05,4.05 2.23,0 4.05,-1.82 4.05,-4.05 0,-2.22 -1.82,-4.05 -4.05,-4.05 -2.23,0 -4.05,1.83 -4.05,4.05"
       style="fill:#000000;fill-opacity:1;fill-rule:nonzero;stroke:none"
       id="path58" />
    <path
       d="m 300.69,203 c 0,2.23 1.83,4.05 4.05,4.05 2.23,0 4.05,-1.82 4.05,-4.05 0,-2.23 -1.82,-4.05 -4.05,-4.05 -2.22,0 -4.05,1.82 -4.05,4.05"
       style="fill:#000000;fill-opacity:1;fill-rule:nonzero;stroke:none"
       id="path60" />
    <path
       d="m 428.69,369.03 c 0,2.22 1.83,4.05 4.05,4.05 2.23,0 4.05,-1.83 4.05,-4.05 0,-2.23 -1.82,-4.05 -4.05,-4.05 -2.22,0 -4.05,1.82 -4.05,4.05"
       style="fill:#000000;fill-opacity:1;fill-rule:nonzero;stroke:none"
       id="path62" />
    <path
       d="m 216.93,214.3 c 0,2.23 1.83,4.05 4.05,4.05 2.23,0 4.05,-1.82 4.05,-4.05 0,-2.23 -1.82,-4.05 -4.05,-4.05 -2.22,0 -4.05,1.82 -4.05,4.05"
       style="fill:#000000;fill-opacity:1;fill-rule:nonzero;stroke:none"
       id="path64" />
    <path
       d="m 70.35,87.2 c 0,2.23 1.82,4.05 4.05,4.05 2.23,0 4.05,-1.82 4.05,-4.05 0,-2.23 -1.82,-4.05 -4.05,-4.05 -2.23,0 -4.05,1.82 -4.05,4.05"
       style="fill:#000000;fill-opacity:1;fill-rule:nonzero;stroke:none"
       id="path66" />
    <path
       d="m 258.74,245.49 c 0,2.23 1.82,4.05 4.05,4.05 2.22,0 4.05,-1.82 4.05,-4.05 0,-2.23 -1.83,-4.05 -4.05,-4.05 -2.23,0 -4.05,1.82 -4.05,4.05"
       style="fill:#000000;fill-opacity:1;fill-rule:nonzero;stroke:none"
       id="path68" />
    <path
       d="m 377.7,283.06 c 0,2.23 1.82,4.05 4.05,4.05 2.23,0 4.05,-1.82 4.05,-4.05 0,-2.23 -1.82,-4.05 -4.05,-4.05 -2.23,0 -4.05,1.82 -4.05,4.05"
       style="fill:#000000;fill-opacity:1;fill-rule:nonzero;stroke:none"
       id="path70" />
    <path
       d="m 371.1,334.61 c 0,2.23 1.82,4.05 4.05,4.05 2.23,0 4.05,-1.82 4.05,-4.05 0,-2.23 -1.82,-4.05 -4.05,-4.05 -2.23,0 -4.05,1.82 -4.05,4.05"
       style="fill:#000000;fill-opacity:1;fill-rule:nonzero;stroke:none"
       id="path72" />
    <path
       d="m 232.57,200.71 c 0,2.23 1.82,4.05 4.05,4.05 2.23,0 4.05,-1.82 4.05,-4.05 0,-2.23 -1.82,-4.05 -4.05,-4.05 -2.23,0 -4.05,1.82 -4.05,4.05"
       style="fill:#000000;fill-opacity:1;fill-rule:nonzero;stroke:none"
       id="path74" />
    <path
       d="m 258.22,237.52 c 0,2.23 1.83,4.05 4.05,4.05 2.23,0 4.05,-1.82 4.05,-4.05 0,-2.23 -1.82,-4.05 -4.05,-4.05 -2.22,0 -4.05,1.82 -4.05,4.05"
       style="fill:#000000;fill-opacity:1;fill-rule:nonzero;stroke:none"
       id="path76" />
    <path
       d="M 67.56,73.44 H 460.44"
       style="fill:none;stroke:#000000;stroke-width:0.75;stroke-linecap:round;stroke-linejoin:round;stroke-miterlimit:10;stroke-dasharray:none;stroke-opacity:1"
       id="path78" />
    <path
       d="m 67.56,73.44 v -7.2"
       style="fill:none;stroke:#000000;stroke-width:0.75;stroke-linecap:round;stroke-linejoin:round;stroke-miterlimit:10;stroke-dasharray:none;stroke-opacity:1"
       id="path80" />
    <path
       d="m 146.14,73.44 v -7.2"
       style="fill:none;stroke:#000000;stroke-width:0.75;stroke-linecap:round;stroke-linejoin:round;stroke-miterlimit:10;stroke-dasharray:none;stroke-opacity:1"
       id="path82" />
    <path
       d="m 224.72,73.44 v -7.2"
       style="fill:none;stroke:#000000;stroke-width:0.75;stroke-linecap:round;stroke-linejoin:round;stroke-miterlimit:10;stroke-dasharray:none;stroke-opacity:1"
       id="path84" />
    <path
       d="m 303.29,73.44 v -7.2"
       style="fill:none;stroke:#000000;stroke-width:0.75;stroke-linecap:round;stroke-linejoin:round;stroke-miterlimit:10;stroke-dasharray:none;stroke-opacity:1"
       id="path86" />
    <path
       d="m 381.87,73.44 v -7.2"
       style="fill:none;stroke:#000000;stroke-width:0.75;stroke-linecap:round;stroke-linejoin:round;stroke-miterlimit:10;stroke-dasharray:none;stroke-opacity:1"
       id="path88" />
    <path
       d="m 460.44,73.44 v -7.2"
       style="fill:none;stroke:#000000;stroke-width:0.75;stroke-linecap:round;stroke-linejoin:round;stroke-miterlimit:10;stroke-dasharray:none;stroke-opacity:1"
       id="path90" />
    <text
       xml:space="preserve"
       transform="scale(1,-1)"
       style="font-variant:normal;font-weight:normal;font-size:12px;font-family:Helvetica;-inkscape-font-specification:Helvetica;writing-mode:lr-tb;fill:#000000;fill-opacity:1;fill-rule:nonzero;stroke:none"
       id="text94"
       x="50.880001"
       y="-47.52"><tspan
         x="50.880001 57.551998 64.223999 70.896004 77.568001"
         y="-47.52"
         sodipodi:role="line"
         id="tspan92">10000</tspan></text>
    <text
       xml:space="preserve"
       transform="scale(1,-1)"
       style="font-variant:normal;font-weight:normal;font-size:12px;font-family:Helvetica;-inkscape-font-specification:Helvetica;writing-mode:lr-tb;fill:#000000;fill-opacity:1;fill-rule:nonzero;stroke:none"
       id="text98"
       x="129.46001"
       y="-47.52"><tspan
         x="129.46001 136.132 142.804 149.476 156.14799"
         y="-47.52"
         sodipodi:role="line"
         id="tspan96">20000</tspan></text>
    <text
       xml:space="preserve"
       transform="scale(1,-1)"
       style="font-variant:normal;font-weight:normal;font-size:12px;font-family:Helvetica;-inkscape-font-specification:Helvetica;writing-mode:lr-tb;fill:#000000;fill-opacity:1;fill-rule:nonzero;stroke:none"
       id="text102"
       x="208.03999"
       y="-47.52"><tspan
         x="208.03999 214.71201 221.384 228.056 234.728"
         y="-47.52"
         sodipodi:role="line"
         id="tspan100">30000</tspan></text>
    <text
       xml:space="preserve"
       transform="scale(1,-1)"
       style="font-variant:normal;font-weight:normal;font-size:12px;font-family:Helvetica;-inkscape-font-specification:Helvetica;writing-mode:lr-tb;fill:#000000;fill-opacity:1;fill-rule:nonzero;stroke:none"
       id="text106"
       x="286.60999"
       y="-47.52"><tspan
         x="286.60999 293.28201 299.95401 306.62601 313.298"
         y="-47.52"
         sodipodi:role="line"
         id="tspan104">40000</tspan></text>
    <text
       xml:space="preserve"
       transform="scale(1,-1)"
       style="font-variant:normal;font-weight:normal;font-size:12px;font-family:Helvetica;-inkscape-font-specification:Helvetica;writing-mode:lr-tb;fill:#000000;fill-opacity:1;fill-rule:nonzero;stroke:none"
       id="text110"
       x="365.19"
       y="-47.52"><tspan
         x="365.19 371.862 378.534 385.20599 391.87799"
         y="-47.52"
         sodipodi:role="line"
         id="tspan108">50000</tspan></text>
    <text
       xml:space="preserve"
       transform="scale(1,-1)"
       style="font-variant:normal;font-weight:normal;font-size:12px;font-family:Helvetica;-inkscape-font-specification:Helvetica;writing-mode:lr-tb;fill:#000000;fill-opacity:1;fill-rule:nonzero;stroke:none"
       id="text114"
       x="443.76001"
       y="-47.52"><tspan
         x="443.76001 450.43201 457.104 463.776 470.448"
         y="-47.52"
         sodipodi:role="line"
         id="tspan112">60000</tspan></text>
    <path
       d="M 59.04,77.49 V 362.08"
       style="fill:none;stroke:#000000;stroke-width:0.75;stroke-linecap:round;stroke-linejoin:round;stroke-miterlimit:10;stroke-dasharray:none;stroke-opacity:1"
       id="path116" />
    <path
       d="m 59.04,77.49 h -7.2"
       style="fill:none;stroke:#000000;stroke-width:0.75;stroke-linecap:round;stroke-linejoin:round;stroke-miterlimit:10;stroke-dasharray:none;stroke-opacity:1"
       id="path118" />
    <path
       d="m 59.04,163.16 h -7.2"
       style="fill:none;stroke:#000000;stroke-width:0.75;stroke-linecap:round;stroke-linejoin:round;stroke-miterlimit:10;stroke-dasharray:none;stroke-opacity:1"
       id="path120" />
    <path
       d="m 59.04,276.41 h -7.2"
       style="fill:none;stroke:#000000;stroke-width:0.75;stroke-linecap:round;stroke-linejoin:round;stroke-miterlimit:10;stroke-dasharray:none;stroke-opacity:1"
       id="path122" />
    <path
       d="m 59.04,362.08 h -7.2"
       style="fill:none;stroke:#000000;stroke-width:0.75;stroke-linecap:round;stroke-linejoin:round;stroke-miterlimit:10;stroke-dasharray:none;stroke-opacity:1"
       id="path124" />
    <text
       xml:space="preserve"
       transform="matrix(0,1,1,0,0,0)"
       style="font-variant:normal;font-weight:normal;font-size:12px;font-family:Helvetica;-inkscape-font-specification:Helvetica;writing-mode:lr-tb;fill:#000000;fill-opacity:1;fill-rule:nonzero;stroke:none"
       id="text128"
       x="65.809998"
       y="41.759998"><tspan
         x="65.809998 72.482002 75.818001 82.489998"
         y="41.759998"
         sodipodi:role="line"
         id="tspan126">0.01</tspan></text>
    <text
       xml:space="preserve"
       transform="matrix(0,1,1,0,0,0)"
       style="font-variant:normal;font-weight:normal;font-size:12px;font-family:Helvetica;-inkscape-font-specification:Helvetica;writing-mode:lr-tb;fill:#000000;fill-opacity:1;fill-rule:nonzero;stroke:none"
       id="text132"
       x="151.48"
       y="41.759998"><tspan
         x="151.48 158.15199 161.48801 168.16"
         y="41.759998"
         sodipodi:role="line"
         id="tspan130">0.02</tspan></text>
    <text
       xml:space="preserve"
       transform="matrix(0,1,1,0,0,0)"
       style="font-variant:normal;font-weight:normal;font-size:12px;font-family:Helvetica;-inkscape-font-specification:Helvetica;writing-mode:lr-tb;fill:#000000;fill-opacity:1;fill-rule:nonzero;stroke:none"
       id="text136"
       x="264.73001"
       y="41.759998"><tspan
         x="264.73001 271.40201 274.73801 281.41"
         y="41.759998"
         sodipodi:role="line"
         id="tspan134">0.05</tspan></text>
    <text
       xml:space="preserve"
       transform="matrix(0,1,1,0,0,0)"
       style="font-variant:normal;font-weight:normal;font-size:12px;font-family:Helvetica;-inkscape-font-specification:Helvetica;writing-mode:lr-tb;fill:#000000;fill-opacity:1;fill-rule:nonzero;stroke:none"
       id="text140"
       x="350.39999"
       y="41.759998"><tspan
         x="350.39999 357.07199 360.40799 367.07999"
         y="41.759998"
         sodipodi:role="line"
         id="tspan138">0.10</tspan></text>
    <path
       d="M 59.04,73.44 H 473.76 V 444.96 H 59.04 Z"
       style="fill:none;stroke:#000000;stroke-width:0.75;stroke-linecap:round;stroke-linejoin:round;stroke-miterlimit:10;stroke-dasharray:none;stroke-opacity:1"
       id="path142" />
    <text
       xml:space="preserve"
       transform="scale(1,-1)"
       style="font-variant:normal;font-weight:normal;font-size:12px;font-family:Helvetica;-inkscape-font-specification:Helvetica;writing-mode:lr-tb;fill:#000000;fill-opacity:1;fill-rule:nonzero;stroke:none"
       id="text146"
       x="250.39"
       y="-18.719999"><tspan
         x="250.39 257.06201 263.73401 266.39801 273.07001 276.40601"
         y="-18.719999"
         sodipodi:role="line"
         id="tspan144">points</tspan></text>
    <text
       xml:space="preserve"
       transform="matrix(0,1,1,0,0,0)"
       style="font-variant:normal;font-weight:normal;font-size:12px;font-family:Helvetica;-inkscape-font-specification:Helvetica;writing-mode:lr-tb;fill:#000000;fill-opacity:1;fill-rule:nonzero;stroke:none"
       id="text150"
       x="183.36"
       y="12.96"><tspan
         x="183.36 193.356 200.028 206.028 208.692 218.56799 225.24001 235.23599 238.57201 241.23599 243.89999 249.66 256.332 258.996 261.66 268.332 275.004 281.67599 288.34799 291.68399 297.68399 301.01999 305.01599 311.68799 318.35999 325.03198 328.36798"
         y="12.96"
         sodipodi:role="line"
         id="tspan148">maximum likelihood strength</tspan></text>
    <text
       xml:space="preserve"
       transform="scale(1,-1)"
       style="font-variant:normal;font-weight:normal;font-size:10px;font-family:Helvetica;-inkscape-font-specification:Helvetica;writing-mode:lr-tb;fill:#bebebe;fill-opacity:1;fill-rule:nonzero;stroke:none"
       id="text154"
       x="362.78"
       y="-294.87"><tspan
         x="362.78 369.45001 375.01001 380.57001 382.79001 388.35001"
         y="-294.87"
         sodipodi:role="line"
         id="tspan152">Andino</tspan></text>
    <text
       xml:space="preserve"
       transform="scale(1,-1)"
       style="font-variant:normal;font-weight:normal;font-size:10px;font-family:Helvetica;-inkscape-font-specification:Helvetica;writing-mode:lr-tb;fill:#bebebe;fill-opacity:1;fill-rule:nonzero;stroke:none"
       id="text158"
       x="226.53"
       y="-154.87"><tspan
         x="226.53 233.2 238.75999 244.32001 247.64999 253.21001"
         y="-154.87"
         sodipodi:role="line"
         id="tspan156">Bourez</tspan></text>
    <text
       xml:space="preserve"
       transform="scale(1,-1)"
       style="font-variant:normal;font-weight:normal;font-size:10px;font-family:Helvetica;-inkscape-font-specification:Helvetica;writing-mode:lr-tb;fill:#bebebe;fill-opacity:1;fill-rule:nonzero;stroke:none"
       id="text162"
       x="197.58"
       y="-164.13"><tspan
         x="197.58 204.25 209.81 214.81 220.37 225.93001"
         y="-164.13"
         sodipodi:role="line"
         id="tspan160">Buchan</tspan></text>
    <text
       xml:space="preserve"
       transform="scale(1,-1)"
       style="font-variant:normal;font-weight:normal;font-size:10px;font-family:Helvetica;-inkscape-font-specification:Helvetica;writing-mode:lr-tb;fill:#bebebe;fill-opacity:1;fill-rule:nonzero;stroke:none"
       id="text166"
       x="169.05"
       y="-140.02"><tspan
         x="169.05 176.27 181.83 184.05 186.27 188.49001 194.05 199.61"
         y="-140.02"
         sodipodi:role="line"
         id="tspan164">Callinan</tspan></text>
    <text
       xml:space="preserve"
       transform="scale(1,-1)"
       style="font-variant:normal;font-weight:normal;font-size:10px;font-family:Helvetica;-inkscape-font-specification:Helvetica;writing-mode:lr-tb;fill:#bebebe;fill-opacity:1;fill-rule:nonzero;stroke:none"
       id="text170"
       x="143.46001"
       y="-153.48"><tspan
         x="143.46001 150.67999 156.24001 159.82001 168.14999 170.37 175.37 180.93001 186.49001 192.05"
         y="-153.48"
         sodipodi:role="line"
         id="tspan168">Carmichael</tspan></text>
    <text
       xml:space="preserve"
       transform="scale(1,-1)"
       style="font-variant:normal;font-weight:normal;font-size:10px;font-family:Helvetica;-inkscape-font-specification:Helvetica;writing-mode:lr-tb;fill:#bebebe;fill-opacity:1;fill-rule:nonzero;stroke:none"
       id="text174"
       x="179.62"
       y="-119.73"><tspan
         x="179.62 186.84 192.39999 195.18001 197.96001 200.17999"
         y="-119.73"
         sodipodi:role="line"
         id="tspan172">Coffin</tspan></text>
    <text
       xml:space="preserve"
       transform="scale(1,-1)"
       style="font-variant:normal;font-weight:normal;font-size:10px;font-family:Helvetica;-inkscape-font-specification:Helvetica;writing-mode:lr-tb;fill:#bebebe;fill-opacity:1;fill-rule:nonzero;stroke:none"
       id="text178"
       x="156.38"
       y="-210.35001"><tspan
         x="156.38 163.60001 169.16 171.38 176.94 182.5 184.72 190.28 193.06"
         y="-210.35001"
         sodipodi:role="line"
         id="tspan176">Colapinto</tspan></text>
    <text
       xml:space="preserve"
       transform="scale(1,-1)"
       style="font-variant:normal;font-weight:normal;font-size:10px;font-family:Helvetica;-inkscape-font-specification:Helvetica;writing-mode:lr-tb;fill:#bebebe;fill-opacity:1;fill-rule:nonzero;stroke:none"
       id="text182"
       x="128.62"
       y="-170.53"><tspan
         x="128.62 135.84 139.32001 141.53999 146.53999 152.10001 157.66 160.44"
         y="-170.53"
         sodipodi:role="line"
         id="tspan180">Crisanto</tspan></text>
    <text
       xml:space="preserve"
       transform="scale(1,-1)"
       style="font-variant:normal;font-weight:normal;font-size:10px;font-family:Helvetica;-inkscape-font-specification:Helvetica;writing-mode:lr-tb;fill:#bebebe;fill-opacity:1;fill-rule:nonzero;stroke:none"
       id="text186"
       x="175.17999"
       y="-191.96001"><tspan
         x="175.17999 182.39999 187.96001 191.19"
         y="-191.96001"
         sodipodi:role="line"
         id="tspan184">Dora</tspan></text>
    <text
       xml:space="preserve"
       transform="scale(1,-1)"
       style="font-variant:normal;font-weight:normal;font-size:10px;font-family:Helvetica;-inkscape-font-specification:Helvetica;writing-mode:lr-tb;fill:#bebebe;fill-opacity:1;fill-rule:nonzero;stroke:none"
       id="text190"
       x="413.10001"
       y="-388.17999"><tspan
         x="413.10001 418.91 424.47 427.79999 431.13 436.69 438.91 442.14001"
         y="-388.17999"
         sodipodi:role="line"
         id="tspan188">Ferreira</tspan></text>
    <text
       xml:space="preserve"
       transform="scale(1,-1)"
       style="font-variant:normal;font-weight:normal;font-size:10px;font-family:Helvetica;-inkscape-font-specification:Helvetica;writing-mode:lr-tb;fill:#bebebe;fill-opacity:1;fill-rule:nonzero;stroke:none"
       id="text194"
       x="292.42001"
       y="-428.81"><tspan
         x="292.42001 298.53 300.75 306.31 309.63998 315.20001 320.76001 325.76001"
         y="-428.81"
         sodipodi:role="line"
         id="tspan192">Florence</tspan></text>
    <text
       xml:space="preserve"
       transform="scale(1,-1)"
       style="font-variant:normal;font-weight:normal;font-size:10px;font-family:Helvetica;-inkscape-font-specification:Helvetica;writing-mode:lr-tb;fill:#bebebe;fill-opacity:1;fill-rule:nonzero;stroke:none"
       id="text198"
       x="251.67999"
       y="-163.7"><tspan
         x="251.67999 257.79001 260.01001 265.57001 268.89999 274.45999"
         y="-163.7"
         sodipodi:role="line"
         id="tspan196">Flores</tspan></text>
    <text
       xml:space="preserve"
       transform="scale(1,-1)"
       style="font-variant:normal;font-weight:normal;font-size:10px;font-family:Helvetica;-inkscape-font-specification:Helvetica;writing-mode:lr-tb;fill:#bebebe;fill-opacity:1;fill-rule:nonzero;stroke:none"
       id="text202"
       x="212.55"
       y="-143.28"><tspan
         x="212.55 218.66 221.99001 227.55 233.11 238.11 240.89 246.45 252.00999"
         y="-143.28"
         sodipodi:role="line"
         id="tspan200">Freestone</tspan></text>
    <text
       xml:space="preserve"
       transform="scale(1,-1)"
       style="font-variant:normal;font-weight:normal;font-size:10px;font-family:Helvetica;-inkscape-font-specification:Helvetica;writing-mode:lr-tb;fill:#bebebe;fill-opacity:1;fill-rule:nonzero;stroke:none"
       id="text206"
       x="207.44"
       y="-175.21001"><tspan
         x="207.44 210.22 215.78 221.34 223.56 225.78"
         y="-175.21001"
         sodipodi:role="line"
         id="tspan204">Ibelli</tspan></text>
    <text
       xml:space="preserve"
       transform="scale(1,-1)"
       style="font-variant:normal;font-weight:normal;font-size:10px;font-family:Helvetica;-inkscape-font-specification:Helvetica;writing-mode:lr-tb;fill:#bebebe;fill-opacity:1;fill-rule:nonzero;stroke:none"
       id="text210"
       x="311.94"
       y="-200.61"><tspan
         x="311.94 314.72 320.28 325.84 329.07001 334.63 339.63 345.19"
         y="-200.61"
         sodipodi:role="line"
         id="tspan208">Igarashi</tspan></text>
    <text
       xml:space="preserve"
       transform="scale(1,-1)"
       style="font-variant:normal;font-weight:normal;font-size:10px;font-family:Helvetica;-inkscape-font-specification:Helvetica;writing-mode:lr-tb;fill:#bebebe;fill-opacity:1;fill-rule:nonzero;stroke:none"
       id="text214"
       x="439.94"
       y="-366.63"><tspan
         x="439.94 448.26999 453.82999 459.39001 461.60999 467.17001"
         y="-366.63"
         sodipodi:role="line"
         id="tspan212">Medina</tspan></text>
    <text
       xml:space="preserve"
       transform="scale(1,-1)"
       style="font-variant:normal;font-weight:normal;font-size:10px;font-family:Helvetica;-inkscape-font-specification:Helvetica;writing-mode:lr-tb;fill:#bebebe;fill-opacity:1;fill-rule:nonzero;stroke:none"
       id="text218"
       x="228.17999"
       y="-211.91"><tspan
         x="228.17999 236.50999 242.07001 247.63 249.85001"
         y="-211.91"
         sodipodi:role="line"
         id="tspan216">Moniz</tspan></text>
    <text
       xml:space="preserve"
       transform="scale(1,-1)"
       style="font-variant:normal;font-weight:normal;font-size:10px;font-family:Helvetica;-inkscape-font-specification:Helvetica;writing-mode:lr-tb;fill:#bebebe;fill-opacity:1;fill-rule:nonzero;stroke:none"
       id="text222"
       x="81.599998"
       y="-84.809998"><tspan
         x="81.599998 89.93 95.489998 98.720001 104.28 106.5"
         y="-84.809998"
         sodipodi:role="line"
         id="tspan220">Morais</tspan></text>
    <text
       xml:space="preserve"
       transform="scale(1,-1)"
       style="font-variant:normal;font-weight:normal;font-size:10px;font-family:Helvetica;-inkscape-font-specification:Helvetica;writing-mode:lr-tb;fill:#bebebe;fill-opacity:1;fill-rule:nonzero;stroke:none"
       id="text226"
       x="269.98999"
       y="-243.10001"><tspan
         x="269.98999 276.66 278.88 284.44 287.22 292.78"
         y="-243.10001"
         sodipodi:role="line"
         id="tspan224">Slater</tspan></text>
    <text
       xml:space="preserve"
       transform="scale(1,-1)"
       style="font-variant:normal;font-weight:normal;font-size:10px;font-family:Helvetica;-inkscape-font-specification:Helvetica;writing-mode:lr-tb;fill:#bebebe;fill-opacity:1;fill-rule:nonzero;stroke:none"
       id="text230"
       x="388.95001"
       y="-280.67001"><tspan
         x="388.95001 395.62 403.95001 406.17001 408.95001"
         y="-280.67001"
         sodipodi:role="line"
         id="tspan228">Smith</tspan></text>
    <text
       xml:space="preserve"
       transform="scale(1,-1)"
       style="font-variant:normal;font-weight:normal;font-size:10px;font-family:Helvetica;-inkscape-font-specification:Helvetica;writing-mode:lr-tb;fill:#bebebe;fill-opacity:1;fill-rule:nonzero;stroke:none"
       id="text234"
       x="337.35001"
       y="-332.22"><tspan
         x="337.35001 342.26001 347.82001 350.04001 355.60001 361.16"
         y="-332.22"
         sodipodi:role="line"
         id="tspan232">Toledo</tspan></text>
    <text
       xml:space="preserve"
       transform="scale(1,-1)"
       style="font-variant:normal;font-weight:normal;font-size:10px;font-family:Helvetica;-inkscape-font-specification:Helvetica;writing-mode:lr-tb;fill:#bebebe;fill-opacity:1;fill-rule:nonzero;stroke:none"
       id="text238"
       x="243.82001"
       y="-198.32001"><tspan
         x="243.82001 253.25999 255.48 257.70001 262.70001 268.26001"
         y="-198.32001"
         sodipodi:role="line"
         id="tspan236">Wilson</tspan></text>
    <text
       xml:space="preserve"
       transform="scale(1,-1)"
       style="font-variant:normal;font-weight:normal;font-size:10px;font-family:Helvetica;-inkscape-font-specification:Helvetica;writing-mode:lr-tb;fill:#bebebe;fill-opacity:1;fill-rule:nonzero;stroke:none"
       id="text242"
       x="227.47"
       y="-235.13"><tspan
         x="227.47 236.91 240.39001 242.60999 248.17001 253.73001"
         y="-235.13"
         sodipodi:role="line"
         id="tspan240">Wright</tspan></text>
    <g
       id="g244">
      <g
         id="g246"
         clip-path="url(#clipPath250)">
        <path
           d="M 59.04,65.94 473.76,400.57"
           style="fill:none;stroke:#000000;stroke-width:0.75;stroke-linecap:round;stroke-linejoin:round;stroke-miterlimit:10;stroke-dasharray:none;stroke-opacity:1"
           id="path252" />
      </g>
    </g>
    <path
       style="fill:none;stroke:#000000;stroke-width:0.75px;stroke-linecap:butt;stroke-linejoin:miter;stroke-opacity:1"
       d="m 215.00962,151.74006 c -0.56909,3.32807 -0.0921,3.84112 -2.24428,6.17862 -2.15215,2.3375 -4.59786,0.50377 -4.59786,0.50377"
       id="path581"
       sodipodi:nodetypes="czc" />
  </g>
</svg>
