<?xml version="1.0" encoding="UTF-8" standalone="no"?>
<!-- Created with Inkscape (http://www.inkscape.org/) -->

<svg
   version="1.1"
   id="svg18"
   width="672"
   height="672"
   viewBox="0 0 672 672"
   sodipodi:docname="directlogplotofstrengths_postinkscape.svg"
   inkscape:version="1.2 (56b05e47e7, 2022-06-09, custom)"
   xmlns:inkscape="http://www.inkscape.org/namespaces/inkscape"
   xmlns:sodipodi="http://sodipodi.sourceforge.net/DTD/sodipodi-0.dtd"
   xmlns="http://www.w3.org/2000/svg"
   xmlns:svg="http://www.w3.org/2000/svg">
  <defs
     id="defs22">
    <clipPath
       clipPathUnits="userSpaceOnUse"
       id="clipPath204">
      <path
         d="M 0,0 H 504 V 504 H 0 Z"
         id="path202" />
    </clipPath>
    <clipPath
       clipPathUnits="userSpaceOnUse"
       id="clipPath586">
      <path
         d="m 59.039,-59.039 h 414.723 v -371.52 H 59.039 Z"
         id="path588"
         style="stroke-width:0.999998" />
    </clipPath>
    <clipPath
       clipPathUnits="userSpaceOnUse"
       id="clipPath600">
      <path
         d="m 59.039,59.039 h 414.723 v 371.52 H 59.039 Z"
         id="path602"
         style="stroke-width:0.999998" />
    </clipPath>
  </defs>
  <sodipodi:namedview
     id="namedview20"
     pagecolor="#ffffff"
     bordercolor="#666666"
     borderopacity="1.0"
     inkscape:showpageshadow="2"
     inkscape:pageopacity="0.0"
     inkscape:pagecheckerboard="0"
     inkscape:deskcolor="#d1d1d1"
     showgrid="false"
     inkscape:zoom="0.80059524"
     inkscape:cx="336"
     inkscape:cy="336.62454"
     inkscape:window-width="1294"
     inkscape:window-height="704"
     inkscape:window-x="72"
     inkscape:window-y="27"
     inkscape:window-maximized="1"
     inkscape:current-layer="g26">
    <inkscape:page
       x="0"
       y="0"
       id="page24"
       width="672"
       height="672" />
  </sodipodi:namedview>
  <g
     id="g26"
     inkscape:groupmode="layer"
     inkscape:label="Page 1"
     transform="matrix(1.3333333,0,0,1.3333333,0,1.68e-5)">
    <path
       d="m 398.641,206.738 c 0,-2.226 1.82,-4.047 4.05,-4.047 2.231,0 4.047,1.821 4.047,4.047 0,2.223 -1.816,4.051 -4.047,4.051 -2.23,0 -4.05,-1.828 -4.05,-4.051"
       style="fill:#000000;fill-opacity:1;fill-rule:nonzero;stroke:none"
       id="path30" />
    <path
       d="m 293.922,346.738 c 0,-2.226 1.816,-4.047 4.047,-4.047 2.23,0 4.051,1.821 4.051,4.047 0,2.231 -1.821,4.051 -4.051,4.051 -2.231,0 -4.047,-1.82 -4.047,-4.051"
       style="fill:#000000;fill-opacity:1;fill-rule:nonzero;stroke:none"
       id="path32" />
    <path
       d="m 263.648,337.48 c 0,-2.23 1.821,-4.05 4.051,-4.05 2.231,0 4.051,1.82 4.051,4.05 0,2.219 -1.82,4.051 -4.051,4.051 -2.23,0 -4.051,-1.832 -4.051,-4.051"
       style="fill:#000000;fill-opacity:1;fill-rule:nonzero;stroke:none"
       id="path34" />
    <path
       d="m 279.801,351.09 c 0,-2.231 1.828,-4.051 4.051,-4.051 2.226,0 4.046,1.82 4.046,4.051 0,2.23 -1.82,4.051 -4.046,4.051 -2.223,0 -4.051,-1.821 -4.051,-4.051"
       style="fill:#000000;fill-opacity:1;fill-rule:nonzero;stroke:none"
       id="path36" />
    <path
       d="m 273.371,348.121 c 0,-2.223 1.82,-4.051 4.051,-4.051 2.226,0 4.047,1.828 4.047,4.051 0,2.231 -1.821,4.051 -4.047,4.051 -2.231,0 -4.051,-1.82 -4.051,-4.051"
       style="fill:#000000;fill-opacity:1;fill-rule:nonzero;stroke:none"
       id="path38" />
    <path
       d="m 242.602,381.879 c 0,-2.231 1.828,-4.051 4.046,-4.051 2.231,0 4.051,1.82 4.051,4.051 0,2.23 -1.82,4.051 -4.051,4.051 -2.218,0 -4.046,-1.821 -4.046,-4.051"
       style="fill:#000000;fill-opacity:1;fill-rule:nonzero;stroke:none"
       id="path40" />
    <path
       d="m 279.109,291.262 c 0,-2.231 1.821,-4.051 4.051,-4.051 2.231,0 4.051,1.82 4.051,4.051 0,2.218 -1.82,4.047 -4.051,4.047 -2.23,0 -4.051,-1.829 -4.051,-4.047"
       style="fill:#000000;fill-opacity:1;fill-rule:nonzero;stroke:none"
       id="path42" />
    <path
       d="m 242.602,331.078 c 0,-2.226 1.828,-4.047 4.046,-4.047 2.231,0 4.051,1.821 4.051,4.047 0,2.223 -1.82,4.051 -4.051,4.051 -2.218,0 -4.046,-1.828 -4.046,-4.051"
       style="fill:#000000;fill-opacity:1;fill-rule:nonzero;stroke:none"
       id="path44" />
    <path
       d="m 237.078,309.648 c 0,-2.226 1.832,-4.046 4.051,-4.046 2.23,0 4.051,1.82 4.051,4.046 0,2.231 -1.821,4.051 -4.051,4.051 -2.219,0 -4.051,-1.82 -4.051,-4.051"
       style="fill:#000000;fill-opacity:1;fill-rule:nonzero;stroke:none"
       id="path46" />
    <path
       d="m 454.352,113.422 c 0,-2.223 1.82,-4.051 4.046,-4.051 2.231,0 4.051,1.828 4.051,4.051 0,2.226 -1.82,4.047 -4.051,4.047 -2.226,0 -4.046,-1.821 -4.046,-4.047"
       style="fill:#000000;fill-opacity:1;fill-rule:nonzero;stroke:none"
       id="path48" />
    <path
       d="m 350.609,72.801 c 0,-2.231 1.821,-4.051 4.051,-4.051 2.231,0 4.051,1.82 4.051,4.051 0,2.23 -1.82,4.051 -4.051,4.051 -2.23,0 -4.051,-1.821 -4.051,-4.051"
       style="fill:#000000;fill-opacity:1;fill-rule:nonzero;stroke:none"
       id="path50" />
    <path
       d="m 317.27,337.91 c 0,-2.23 1.82,-4.051 4.05,-4.051 2.231,0 4.051,1.821 4.051,4.051 0,2.231 -1.82,4.051 -4.051,4.051 -2.23,0 -4.05,-1.82 -4.05,-4.051"
       style="fill:#000000;fill-opacity:1;fill-rule:nonzero;stroke:none"
       id="path52" />
    <path
       d="m 279.801,349.328 c 0,-2.226 1.828,-4.047 4.051,-4.047 2.226,0 4.046,1.821 4.046,4.047 0,2.223 -1.82,4.051 -4.046,4.051 -2.223,0 -4.051,-1.828 -4.051,-4.051"
       style="fill:#000000;fill-opacity:1;fill-rule:nonzero;stroke:none"
       id="path54" />
    <path
       d="m 274.422,326.398 c 0,-2.226 1.816,-4.046 4.047,-4.046 2.23,0 4.051,1.82 4.051,4.046 0,2.223 -1.821,4.051 -4.051,4.051 -2.231,0 -4.047,-1.828 -4.047,-4.051"
       style="fill:#000000;fill-opacity:1;fill-rule:nonzero;stroke:none"
       id="path56" />
    <path
       d="m 365,301 c 0,-2.23 1.82,-4.051 4.051,-4.051 2.219,0 4.051,1.821 4.051,4.051 0,2.23 -1.832,4.051 -4.051,4.051 C 366.82,305.051 365,303.23 365,301"
       style="fill:#000000;fill-opacity:1;fill-rule:nonzero;stroke:none"
       id="path58" />
    <path
       d="m 441.68,134.969 c 0,-2.219 1.832,-4.047 4.05,-4.047 2.231,0 4.051,1.828 4.051,4.047 0,2.23 -1.82,4.051 -4.051,4.051 -2.218,0 -4.05,-1.821 -4.05,-4.051"
       style="fill:#000000;fill-opacity:1;fill-rule:nonzero;stroke:none"
       id="path60" />
    <path
       d="m 295.531,289.699 c 0,-2.23 1.821,-4.051 4.047,-4.051 2.231,0 4.051,1.821 4.051,4.051 0,2.231 -1.82,4.051 -4.051,4.051 -2.226,0 -4.047,-1.82 -4.047,-4.051"
       style="fill:#000000;fill-opacity:1;fill-rule:nonzero;stroke:none"
       id="path62" />
    <path
       d="m 70.352,416.801 c 0,-2.231 1.82,-4.051 4.046,-4.051 2.231,0 4.051,1.82 4.051,4.051 0,2.23 -1.82,4.051 -4.051,4.051 -2.226,0 -4.046,-1.821 -4.046,-4.051"
       style="fill:#000000;fill-opacity:1;fill-rule:nonzero;stroke:none"
       id="path64" />
    <path
       d="m 332.859,258.512 c 0,-2.231 1.832,-4.051 4.051,-4.051 2.231,0 4.051,1.82 4.051,4.051 0,2.226 -1.82,4.047 -4.051,4.047 -2.219,0 -4.051,-1.821 -4.051,-4.047"
       style="fill:#000000;fill-opacity:1;fill-rule:nonzero;stroke:none"
       id="path66" />
    <path
       d="m 414.172,220.941 c 0,-2.23 1.828,-4.05 4.047,-4.05 2.23,0 4.051,1.82 4.051,4.05 0,2.231 -1.821,4.047 -4.051,4.047 -2.219,0 -4.047,-1.816 -4.047,-4.047"
       style="fill:#000000;fill-opacity:1;fill-rule:nonzero;stroke:none"
       id="path68" />
    <path
       d="m 410.359,169.391 c 0,-2.231 1.821,-4.051 4.051,-4.051 2.219,0 4.051,1.82 4.051,4.051 0,2.23 -1.832,4.05 -4.051,4.05 -2.23,0 -4.051,-1.82 -4.051,-4.05"
       style="fill:#000000;fill-opacity:1;fill-rule:nonzero;stroke:none"
       id="path70" />
    <path
       d="m 310.23,303.289 c 0,-2.23 1.821,-4.051 4.051,-4.051 2.231,0 4.047,1.821 4.047,4.051 0,2.231 -1.816,4.051 -4.047,4.051 -2.23,0 -4.051,-1.82 -4.051,-4.051"
       style="fill:#000000;fill-opacity:1;fill-rule:nonzero;stroke:none"
       id="path72" />
    <path
       d="m 332.441,266.48 c 0,-2.23 1.829,-4.05 4.047,-4.05 2.231,0 4.051,1.82 4.051,4.05 0,2.231 -1.82,4.051 -4.051,4.051 -2.218,0 -4.047,-1.82 -4.047,-4.051"
       style="fill:#000000;fill-opacity:1;fill-rule:nonzero;stroke:none"
       id="path74" />
    <g
       id="g76"
       transform="scale(1,-1)">
      <path
         d="M 211.801,-430.559 H 459.379"
         style="fill:none;stroke:#000000;stroke-width:0.75;stroke-linecap:round;stroke-linejoin:round;stroke-miterlimit:10;stroke-dasharray:none;stroke-opacity:1"
         id="path78" />
    </g>
    <g
       id="g80"
       transform="scale(1,-1)">
      <path
         d="m 211.801,-430.559 v -7.203"
         style="fill:none;stroke:#000000;stroke-width:0.75;stroke-linecap:round;stroke-linejoin:round;stroke-miterlimit:10;stroke-dasharray:none;stroke-opacity:1"
         id="path82" />
    </g>
    <g
       id="g84"
       transform="scale(1,-1)">
      <path
         d="m 303.18,-430.559 v -7.203"
         style="fill:none;stroke:#000000;stroke-width:0.75;stroke-linecap:round;stroke-linejoin:round;stroke-miterlimit:10;stroke-dasharray:none;stroke-opacity:1"
         id="path86" />
    </g>
    <g
       id="g88"
       transform="scale(1,-1)">
      <path
         d="m 368.012,-430.559 v -7.203"
         style="fill:none;stroke:#000000;stroke-width:0.75;stroke-linecap:round;stroke-linejoin:round;stroke-miterlimit:10;stroke-dasharray:none;stroke-opacity:1"
         id="path90" />
    </g>
    <g
       id="g92"
       transform="scale(1,-1)">
      <path
         d="m 418.289,-430.559 v -7.203"
         style="fill:none;stroke:#000000;stroke-width:0.75;stroke-linecap:round;stroke-linejoin:round;stroke-miterlimit:10;stroke-dasharray:none;stroke-opacity:1"
         id="path94" />
    </g>
    <g
       id="g96"
       transform="scale(1,-1)">
      <path
         d="m 459.379,-430.559 v -7.203"
         style="fill:none;stroke:#000000;stroke-width:0.75;stroke-linecap:round;stroke-linejoin:round;stroke-miterlimit:10;stroke-dasharray:none;stroke-opacity:1"
         id="path98" />
    </g>
    <text
       xml:space="preserve"
       style="font-variant:normal;font-weight:normal;font-size:12px;font-family:'Nimbus Sans';-inkscape-font-specification:NimbusSans-Regular;writing-mode:lr-tb;fill:#000000;fill-opacity:1;fill-rule:nonzero;stroke:none"
       id="text102"
       x="195.12"
       y="456.48001"><tspan
         x="195.12 201.79199 208.46399 215.13599 221.80798 286.5 293.172 299.84399 306.51599 313.18799 351.32397 357.996 364.668 371.34 378.01199 401.60397 408.276 414.948 421.62 428.29199"
         y="456.48001"
         sodipodi:role="line"
         id="tspan100">20000300004000050000</tspan></text>
    <g
       id="g104"
       transform="scale(1,-1)">
      <path
         d="m 59.039,-426.512 v 284.59"
         style="fill:none;stroke:#000000;stroke-width:0.75;stroke-linecap:round;stroke-linejoin:round;stroke-miterlimit:10;stroke-dasharray:none;stroke-opacity:1"
         id="path106" />
    </g>
    <g
       id="g108"
       transform="scale(1,-1)">
      <path
         d="M 59.039,-426.512 H 51.84"
         style="fill:none;stroke:#000000;stroke-width:0.75;stroke-linecap:round;stroke-linejoin:round;stroke-miterlimit:10;stroke-dasharray:none;stroke-opacity:1"
         id="path110" />
    </g>
    <g
       id="g112"
       transform="scale(1,-1)">
      <path
         d="M 59.039,-340.84 H 51.84"
         style="fill:none;stroke:#000000;stroke-width:0.75;stroke-linecap:round;stroke-linejoin:round;stroke-miterlimit:10;stroke-dasharray:none;stroke-opacity:1"
         id="path114" />
    </g>
    <g
       id="g116"
       transform="scale(1,-1)">
      <path
         d="M 59.039,-227.59 H 51.84"
         style="fill:none;stroke:#000000;stroke-width:0.75;stroke-linecap:round;stroke-linejoin:round;stroke-miterlimit:10;stroke-dasharray:none;stroke-opacity:1"
         id="path118" />
    </g>
    <g
       id="g120"
       transform="scale(1,-1)">
      <path
         d="M 59.039,-141.922 H 51.84"
         style="fill:none;stroke:#000000;stroke-width:0.75;stroke-linecap:round;stroke-linejoin:round;stroke-miterlimit:10;stroke-dasharray:none;stroke-opacity:1"
         id="path122" />
    </g>
    <text
       xml:space="preserve"
       transform="rotate(-90)"
       style="font-variant:normal;font-weight:normal;font-size:12px;font-family:'Nimbus Sans';-inkscape-font-specification:NimbusSans-Regular;writing-mode:lr-tb;fill:#000000;fill-opacity:1;fill-rule:nonzero;stroke:none"
       id="text126"
       x="-438.19"
       y="41.759998"><tspan
         x="-438.19 -431.51801 -428.18201 -421.51001 -352.522 -345.85001 -342.51401 -335.84201 -239.26999 -232.59799 -229.26199 -222.58998 -153.60199 -146.92999 -143.59399 -136.922"
         y="41.759998"
         sodipodi:role="line"
         id="tspan124">0.010.020.050.10</tspan></text>
    <g
       id="g128"
       transform="scale(1,-1)">
      <path
         d="m 59.039,-59.039 h 414.723 v -371.52 H 59.039 Z"
         style="fill:none;stroke:#000000;stroke-width:0.75;stroke-linecap:round;stroke-linejoin:round;stroke-miterlimit:10;stroke-dasharray:none;stroke-opacity:1"
         id="path130" />
    </g>
    <text
       xml:space="preserve"
       style="font-variant:normal;font-weight:normal;font-size:12px;font-family:'Nimbus Sans';-inkscape-font-specification:NimbusSans-Regular;writing-mode:lr-tb;fill:#000000;fill-opacity:1;fill-rule:nonzero;stroke:none"
       id="text134"
       x="250.38998"
       y="485.28"><tspan
         x="250.38998 257.06198 263.73398 266.39798 273.06998 276.40601"
         y="485.28"
         sodipodi:role="line"
         id="tspan132">points</tspan></text>
    <text
       xml:space="preserve"
       transform="rotate(-90)"
       style="font-variant:normal;font-weight:normal;font-size:12px;font-family:'Nimbus Sans';-inkscape-font-specification:NimbusSans-Regular;writing-mode:lr-tb;fill:#000000;fill-opacity:1;fill-rule:nonzero;stroke:none"
       id="text138"
       x="-320.64001"
       y="12.96"><tspan
         x="-320.64001 -310.64401 -303.97202 -297.97202 -295.30801 -285.43201 -278.76001 -268.76401 -265.42801 -262.76401 -260.10001 -254.34 -247.668 -245.004 -242.34 -235.668 -228.996 -222.32401 -215.65201 -212.31601 -206.31601 -202.98 -198.98401 -192.312 -185.64 -178.968 -175.632"
         y="12.96"
         sodipodi:role="line"
         id="tspan136">maximum likelihood strength</tspan></text>
    <text
       xml:space="preserve"
       style="font-variant:normal;font-weight:normal;font-size:10px;font-family:'Nimbus Sans';-inkscape-font-specification:NimbusSans-Regular;writing-mode:lr-tb;fill:#bebebe;fill-opacity:1;fill-rule:nonzero;stroke:none"
       id="text186"
       x="409.89001"
       y="209.13"><tspan
         x="409.89001 416.56 422.12 427.67999 429.89999 435.45999"
         y="209.13"
         sodipodi:role="line"
         id="tspan140">Andino</tspan><tspan
         x="305.17001 311.84 317.39999 322.95999 326.29001 331.85001"
         y="349.13"
         sodipodi:role="line"
         id="tspan142">Bourez</tspan><tspan
         x="274.89999 281.56998 287.12997 292.12997 297.68997 303.24997"
         y="339.87"
         sodipodi:role="line"
         id="tspan144">Buchan</tspan><tspan
         x="256.69852 263.91852 269.47852 271.69852 273.91852 276.13852 281.69852 287.25851"
         y="363.35175"
         sodipodi:role="line"
         id="tspan146">Callinan</tspan><tspan
         x="221.49371 228.71371 234.27371 237.85371 246.18372 248.4037 253.4037 258.96371 264.52371 270.08371"
         y="349.4057"
         sodipodi:role="line"
         id="tspan148">Carmichael</tspan><tspan
         x="253.84999 261.07001 266.63 269.41 272.19 274.41"
         y="384.26999"
         sodipodi:role="line"
         id="tspan150">Coffin</tspan><tspan
         x="242.02235 249.24236 254.80235 257.02237 262.58237 268.14236 270.36237 275.92236 278.70236"
         y="286.26093"
         sodipodi:role="line"
         id="tspan152">Colapinto</tspan><tspan
         x="203.6162 210.8362 214.31619 216.53619 221.53619 227.09619 232.65619 235.43619"
         y="333.11401"
         sodipodi:role="line"
         id="tspan154">Crisanto</tspan><tspan
         x="248.32999 255.54997 261.10999 264.34"
         y="312.03998"
         sodipodi:role="line"
         id="tspan156">Dora</tspan><tspan
         x="465.59998 471.40997 476.96997 480.29999 483.62997 489.18997 491.40997 494.63998"
         y="115.82"
         sodipodi:role="line"
         id="tspan158">Ferreira</tspan><tspan
         x="361.85995 367.96997 370.18997 375.74997 379.07996 384.63995 390.19995 395.19995"
         y="75.19001"
         sodipodi:role="line"
         id="tspan160">Florence</tspan><tspan
         x="328.51996 334.62997 336.84998 342.40997 345.73996 351.29996"
         y="340.29999"
         sodipodi:role="line"
         id="tspan162">Flores</tspan><tspan
         x="295.90402 302.01404 305.34402 310.90402 316.46402 321.46402 324.24402 329.80402 335.36401"
         y="362.23929"
         sodipodi:role="line"
         id="tspan164">Freestone</tspan><tspan
         x="285.66998 288.44998 294.00998 299.56998 301.78998 304.00998"
         y="328.78998"
         sodipodi:role="line"
         id="tspan166">Ibelli</tspan><tspan
         x="376.24997 379.02997 384.58997 390.14996 393.37997 398.93997 403.93997 409.49997"
         y="303.38998"
         sodipodi:role="line"
         id="tspan168">Igarashi</tspan><tspan
         x="452.92996 461.25995 466.81995 472.37997 474.59998 480.15997"
         y="137.37"
         sodipodi:role="line"
         id="tspan170">Medina</tspan><tspan
         x="306.77997 315.10999 320.66998 326.22998 328.44998"
         y="292.09"
         sodipodi:role="line"
         id="tspan172">Moniz</tspan><tspan
         x="81.59996 89.929977 95.489975 98.719955 104.27998 106.49995"
         y="419.19"
         sodipodi:role="line"
         id="tspan174">Morais</tspan><tspan
         x="344.10995 350.77997 352.99997 358.55997 361.33997 366.89996"
         y="260.89999"
         sodipodi:role="line"
         id="tspan176">Slater</tspan><tspan
         x="425.41998 432.09 440.41998 442.63998 445.41998"
         y="223.32999"
         sodipodi:role="line"
         id="tspan178">Smith</tspan><tspan
         x="421.60995 426.51996 432.07996 434.29996 439.85995 445.41995"
         y="171.78"
         sodipodi:role="line"
         id="tspan180">Toledo</tspan><tspan
         x="321.47998 330.91998 333.13998 335.35999 340.35999 345.91998"
         y="305.67999"
         sodipodi:role="line"
         id="tspan182">Wilson</tspan><tspan
         x="343.68997 353.12997 356.60999 358.82999 364.38998 369.94998"
         y="268.87"
         sodipodi:role="line"
         id="tspan184">Wright</tspan></text>
    <g
       id="g198"
       clip-path="url(#clipPath600)">
      <g
         id="g200"
         clip-path="url(#clipPath204)">
        <g
           id="g206">
          <g
             id="g208"
             transform="scale(1,-1)">
            <path
               d="m 59.039,-503.629 414.723,360.09"
               style="fill:none;stroke:#000000;stroke-width:0.75;stroke-linecap:round;stroke-linejoin:round;stroke-miterlimit:10;stroke-dasharray:none;stroke-opacity:1"
               id="path210" />
          </g>
        </g>
      </g>
    </g>
    <g
       id="g212"
       transform="scale(1,-1)"
       clip-path="url(#clipPath586)">
      <path
         d="m 296.652,-356.062 c -2.14,5.117 -7.136,12.285 -10.211,10.093"
         style="fill:none;stroke:#000000;stroke-width:0.225;stroke-linecap:butt;stroke-linejoin:miter;stroke-miterlimit:4;stroke-dasharray:none;stroke-opacity:1"
         id="path214" />
    </g>
  </g>
</svg>
