<?xml version="1.0" encoding="UTF-8" standalone="no"?>
<!-- Created with Inkscape (http://www.inkscape.org/) -->

<svg
   version="1.1"
   id="svg3430"
   width="629.76001"
   height="572.30798"
   viewBox="0 0 629.76001 572.30798"
   sodipodi:docname="directplotofstrengths_postinkscape.svg"
   inkscape:version="1.2.1 (0f2f062aeb, 2022-09-21, custom)"
   xmlns:inkscape="http://www.inkscape.org/namespaces/inkscape"
   xmlns:sodipodi="http://sodipodi.sourceforge.net/DTD/sodipodi-0.dtd"
   xmlns="http://www.w3.org/2000/svg"
   xmlns:svg="http://www.w3.org/2000/svg">
  <defs
     id="defs3434">
    <clipPath
       clipPathUnits="userSpaceOnUse"
       id="clipPath3610">
      <path
         d="m 54.828,0.375 h 414.719 v 371.52 H 54.828 Z"
         id="path3608" />
    </clipPath>
    <clipPath
       clipPathUnits="userSpaceOnUse"
       id="clipPath3620">
      <path
         d="M 0,0 H 473 V 430 H 0 Z"
         id="path3618" />
    </clipPath>
  </defs>
  <sodipodi:namedview
     id="namedview3432"
     pagecolor="#ffffff"
     bordercolor="#666666"
     borderopacity="1.0"
     inkscape:showpageshadow="2"
     inkscape:pageopacity="0.0"
     inkscape:pagecheckerboard="0"
     inkscape:deskcolor="#d1d1d1"
     showgrid="false"
     inkscape:zoom="0.87540278"
     inkscape:cx="456.93252"
     inkscape:cy="286.15399"
     inkscape:window-width="1292"
     inkscape:window-height="704"
     inkscape:window-x="0"
     inkscape:window-y="0"
     inkscape:window-maximized="1"
     inkscape:current-layer="g3438">
    <inkscape:page
       x="0"
       y="0"
       id="page3436"
       width="629.76001"
       height="572.30798" />
  </sodipodi:namedview>
  <g
     id="g3438"
     inkscape:groupmode="layer"
     inkscape:label="Page 1"
     transform="matrix(1.3333333,0,0,1.3333333,0,1.03077e-5)">
    <g
       id="g3440">
      <path
         d="m 347.316,148.074 c 0,-2.23 1.832,-4.051 4.051,-4.051 2.231,0 4.051,1.821 4.051,4.051 0,2.223 -1.82,4.051 -4.051,4.051 -2.219,0 -4.051,-1.828 -4.051,-4.051"
         style="fill:#000000;fill-opacity:1;fill-rule:nonzero;stroke:none"
         id="path3442" />
      <path
         d="m 211.066,288.074 c 0,-2.23 1.832,-4.051 4.051,-4.051 2.231,0 4.051,1.821 4.051,4.051 0,2.231 -1.82,4.051 -4.051,4.051 -2.219,0 -4.051,-1.82 -4.051,-4.051"
         style="fill:#000000;fill-opacity:1;fill-rule:nonzero;stroke:none"
         id="path3444" />
      <path
         d="m 182.117,278.816 c 0,-2.23 1.821,-4.05 4.051,-4.05 2.23,0 4.051,1.82 4.051,4.05 0,2.219 -1.821,4.047 -4.051,4.047 -2.23,0 -4.051,-1.828 -4.051,-4.047"
         style="fill:#000000;fill-opacity:1;fill-rule:nonzero;stroke:none"
         id="path3446" />
      <path
         d="m 197.09,292.426 c 0,-2.231 1.816,-4.051 4.047,-4.051 2.222,0 4.051,1.82 4.051,4.051 0,2.23 -1.829,4.051 -4.051,4.051 -2.231,0 -4.047,-1.821 -4.047,-4.051"
         style="fill:#000000;fill-opacity:1;fill-rule:nonzero;stroke:none"
         id="path3448" />
      <path
         d="m 190.996,289.453 c 0,-2.219 1.82,-4.047 4.051,-4.047 2.223,0 4.051,1.828 4.051,4.047 0,2.231 -1.828,4.051 -4.051,4.051 -2.231,0 -4.051,-1.82 -4.051,-4.051"
         style="fill:#000000;fill-opacity:1;fill-rule:nonzero;stroke:none"
         id="path3450" />
      <path
         d="m 164.156,323.215 c 0,-2.231 1.832,-4.051 4.051,-4.051 2.231,0 4.051,1.82 4.051,4.051 0,2.23 -1.82,4.051 -4.051,4.051 -2.219,0 -4.051,-1.821 -4.051,-4.051"
         style="fill:#000000;fill-opacity:1;fill-rule:nonzero;stroke:none"
         id="path3452" />
      <path
         d="m 196.418,232.594 c 0,-2.231 1.82,-4.047 4.051,-4.047 2.23,0 4.051,1.816 4.051,4.047 0,2.222 -1.821,4.051 -4.051,4.051 -2.231,0 -4.051,-1.829 -4.051,-4.051"
         style="fill:#000000;fill-opacity:1;fill-rule:nonzero;stroke:none"
         id="path3454" />
      <path
         d="m 164.156,272.414 c 0,-2.23 1.832,-4.051 4.051,-4.051 2.231,0 4.051,1.821 4.051,4.051 0,2.223 -1.82,4.051 -4.051,4.051 -2.219,0 -4.051,-1.828 -4.051,-4.051"
         style="fill:#000000;fill-opacity:1;fill-rule:nonzero;stroke:none"
         id="path3456" />
      <path
         d="m 159.719,250.984 c 0,-2.23 1.828,-4.05 4.051,-4.05 2.226,0 4.046,1.82 4.046,4.05 0,2.231 -1.82,4.051 -4.046,4.051 -2.223,0 -4.051,-1.82 -4.051,-4.051"
         style="fill:#000000;fill-opacity:1;fill-rule:nonzero;stroke:none"
         id="path3458" />
      <path
         d="m 450.137,54.754 c 0,-2.219 1.82,-4.051 4.051,-4.051 2.23,0 4.05,1.832 4.05,4.051 0,2.23 -1.82,4.051 -4.05,4.051 -2.231,0 -4.051,-1.821 -4.051,-4.051"
         style="fill:#000000;fill-opacity:1;fill-rule:nonzero;stroke:none"
         id="path3460" />
      <path
         d="m 276.957,14.137 c 0,-2.231 1.82,-4.051 4.051,-4.051 2.23,0 4.051,1.82 4.051,4.051 0,2.226 -1.821,4.047 -4.051,4.047 -2.231,0 -4.051,-1.821 -4.051,-4.047"
         style="fill:#000000;fill-opacity:1;fill-rule:nonzero;stroke:none"
         id="path3462" />
      <path
         d="m 236.219,279.246 c 0,-2.23 1.82,-4.051 4.051,-4.051 2.218,0 4.046,1.821 4.046,4.051 0,2.231 -1.828,4.051 -4.046,4.051 -2.231,0 -4.051,-1.82 -4.051,-4.051"
         style="fill:#000000;fill-opacity:1;fill-rule:nonzero;stroke:none"
         id="path3464" />
      <path
         d="m 197.09,290.664 c 0,-2.23 1.816,-4.051 4.047,-4.051 2.222,0 4.051,1.821 4.051,4.051 0,2.223 -1.829,4.051 -4.051,4.051 -2.231,0 -4.047,-1.828 -4.047,-4.051"
         style="fill:#000000;fill-opacity:1;fill-rule:nonzero;stroke:none"
         id="path3466" />
      <path
         d="m 191.977,267.734 c 0,-2.23 1.82,-4.05 4.05,-4.05 2.231,0 4.051,1.82 4.051,4.05 0,2.219 -1.82,4.051 -4.051,4.051 -2.23,0 -4.05,-1.832 -4.05,-4.051"
         style="fill:#000000;fill-opacity:1;fill-rule:nonzero;stroke:none"
         id="path3468" />
      <path
         d="m 296.477,242.336 c 0,-2.231 1.832,-4.051 4.05,-4.051 2.231,0 4.051,1.82 4.051,4.051 0,2.23 -1.82,4.051 -4.051,4.051 -2.218,0 -4.05,-1.821 -4.05,-4.051"
         style="fill:#000000;fill-opacity:1;fill-rule:nonzero;stroke:none"
         id="path3470" />
      <path
         d="m 424.477,76.305 c 0,-2.219 1.832,-4.051 4.05,-4.051 2.231,0 4.051,1.832 4.051,4.051 0,2.23 -1.82,4.05 -4.051,4.05 -2.218,0 -4.05,-1.82 -4.05,-4.05"
         style="fill:#000000;fill-opacity:1;fill-rule:nonzero;stroke:none"
         id="path3472" />
      <path
         d="m 212.719,231.035 c 0,-2.23 1.828,-4.051 4.051,-4.051 2.226,0 4.046,1.821 4.046,4.051 0,2.231 -1.82,4.051 -4.046,4.051 -2.223,0 -4.051,-1.82 -4.051,-4.051"
         style="fill:#000000;fill-opacity:1;fill-rule:nonzero;stroke:none"
         id="path3474" />
      <path
         d="m 66.137,358.137 c 0,-2.231 1.82,-4.051 4.051,-4.051 2.23,0 4.05,1.82 4.05,4.051 0,2.226 -1.82,4.047 -4.05,4.047 -2.231,0 -4.051,-1.821 -4.051,-4.047"
         style="fill:#000000;fill-opacity:1;fill-rule:nonzero;stroke:none"
         id="path3476" />
      <path
         d="m 254.527,199.844 c 0,-2.231 1.821,-4.047 4.051,-4.047 2.219,0 4.051,1.816 4.051,4.047 0,2.23 -1.832,4.051 -4.051,4.051 -2.23,0 -4.051,-1.821 -4.051,-4.051"
         style="fill:#000000;fill-opacity:1;fill-rule:nonzero;stroke:none"
         id="path3478" />
      <path
         d="m 373.488,162.273 c 0,-2.226 1.821,-4.046 4.051,-4.046 2.231,0 4.051,1.82 4.051,4.046 0,2.231 -1.82,4.051 -4.051,4.051 -2.23,0 -4.051,-1.82 -4.051,-4.051"
         style="fill:#000000;fill-opacity:1;fill-rule:nonzero;stroke:none"
         id="path3480" />
      <path
         d="m 366.887,110.727 c 0,-2.231 1.82,-4.051 4.051,-4.051 2.23,0 4.05,1.82 4.05,4.051 0,2.226 -1.82,4.046 -4.05,4.046 -2.231,0 -4.051,-1.82 -4.051,-4.046"
         style="fill:#000000;fill-opacity:1;fill-rule:nonzero;stroke:none"
         id="path3482" />
      <path
         d="m 228.359,244.625 c 0,-2.23 1.821,-4.051 4.047,-4.051 2.231,0 4.051,1.821 4.051,4.051 0,2.23 -1.82,4.051 -4.051,4.051 -2.226,0 -4.047,-1.821 -4.047,-4.051"
         style="fill:#000000;fill-opacity:1;fill-rule:nonzero;stroke:none"
         id="path3484" />
      <path
         d="m 254.008,207.816 c 0,-2.23 1.832,-4.05 4.051,-4.05 2.23,0 4.05,1.82 4.05,4.05 0,2.231 -1.82,4.047 -4.05,4.047 -2.219,0 -4.051,-1.816 -4.051,-4.047"
         style="fill:#000000;fill-opacity:1;fill-rule:nonzero;stroke:none"
         id="path3486" />
      <g
         id="g3488"
         transform="scale(1,-1)">
        <path
           d="M 63.348,-371.895 H 456.227"
           style="fill:none;stroke:#000000;stroke-width:0.75;stroke-linecap:round;stroke-linejoin:round;stroke-miterlimit:10;stroke-dasharray:none;stroke-opacity:1"
           id="path3490" />
      </g>
      <g
         id="g3492"
         transform="scale(1,-1)">
        <path
           d="m 63.348,-371.895 v -7.199"
           style="fill:none;stroke:#000000;stroke-width:0.75;stroke-linecap:round;stroke-linejoin:round;stroke-miterlimit:10;stroke-dasharray:none;stroke-opacity:1"
           id="path3494" />
      </g>
      <g
         id="g3496"
         transform="scale(1,-1)">
        <path
           d="m 141.93,-371.895 v -7.199"
           style="fill:none;stroke:#000000;stroke-width:0.75;stroke-linecap:round;stroke-linejoin:round;stroke-miterlimit:10;stroke-dasharray:none;stroke-opacity:1"
           id="path3498" />
      </g>
      <g
         id="g3500"
         transform="scale(1,-1)">
        <path
           d="m 220.508,-371.895 v -7.199"
           style="fill:none;stroke:#000000;stroke-width:0.75;stroke-linecap:round;stroke-linejoin:round;stroke-miterlimit:10;stroke-dasharray:none;stroke-opacity:1"
           id="path3502" />
      </g>
      <g
         id="g3504"
         transform="scale(1,-1)">
        <path
           d="m 299.078,-371.895 v -7.199"
           style="fill:none;stroke:#000000;stroke-width:0.75;stroke-linecap:round;stroke-linejoin:round;stroke-miterlimit:10;stroke-dasharray:none;stroke-opacity:1"
           id="path3506" />
      </g>
      <g
         id="g3508"
         transform="scale(1,-1)">
        <path
           d="m 377.656,-371.895 v -7.199"
           style="fill:none;stroke:#000000;stroke-width:0.75;stroke-linecap:round;stroke-linejoin:round;stroke-miterlimit:10;stroke-dasharray:none;stroke-opacity:1"
           id="path3510" />
      </g>
      <g
         id="g3512"
         transform="scale(1,-1)">
        <path
           d="m 456.227,-371.895 v -7.199"
           style="fill:none;stroke:#000000;stroke-width:0.75;stroke-linecap:round;stroke-linejoin:round;stroke-miterlimit:10;stroke-dasharray:none;stroke-opacity:1"
           id="path3514" />
      </g>
      <text
         xml:space="preserve"
         transform="translate(46.668,397.81499)"
         style="font-variant:normal;font-weight:normal;font-size:12px;font-family:'Nimbus Sans';-inkscape-font-specification:NimbusSans-Regular;writing-mode:lr-tb;fill:#000000;fill-opacity:1;fill-rule:nonzero;stroke:none"
         id="text3518"><tspan
           x="0 6.6719999 13.344 20.016001 26.688 78.575996 85.248001 91.919998 98.592003 105.264 157.164 163.836 170.508 177.17999 183.85201 235.72998 242.40198 249.07397 255.74599 262.41797 314.30597 320.97797 327.64999 334.32199 340.99399 392.88199 399.55399 406.22598 412.89798 419.56998"
           y="0"
           sodipodi:role="line"
           id="tspan3516">100002000030000400005000060000</tspan></text>
      <g
         id="g3520"
         transform="scale(1,-1)">
        <path
           d="m 54.828,-367.844 v 284.59"
           style="fill:none;stroke:#000000;stroke-width:0.75;stroke-linecap:round;stroke-linejoin:round;stroke-miterlimit:10;stroke-dasharray:none;stroke-opacity:1"
           id="path3522" />
      </g>
      <g
         id="g3524"
         transform="scale(1,-1)">
        <path
           d="M 54.828,-367.844 H 47.629"
           style="fill:none;stroke:#000000;stroke-width:0.75;stroke-linecap:round;stroke-linejoin:round;stroke-miterlimit:10;stroke-dasharray:none;stroke-opacity:1"
           id="path3526" />
      </g>
      <g
         id="g3528"
         transform="scale(1,-1)">
        <path
           d="M 54.828,-282.176 H 47.629"
           style="fill:none;stroke:#000000;stroke-width:0.75;stroke-linecap:round;stroke-linejoin:round;stroke-miterlimit:10;stroke-dasharray:none;stroke-opacity:1"
           id="path3530" />
      </g>
      <g
         id="g3532"
         transform="scale(1,-1)">
        <path
           d="M 54.828,-168.926 H 47.629"
           style="fill:none;stroke:#000000;stroke-width:0.75;stroke-linecap:round;stroke-linejoin:round;stroke-miterlimit:10;stroke-dasharray:none;stroke-opacity:1"
           id="path3534" />
      </g>
      <g
         id="g3536"
         transform="scale(1,-1)">
        <path
           d="M 54.828,-83.254 H 47.629"
           style="fill:none;stroke:#000000;stroke-width:0.75;stroke-linecap:round;stroke-linejoin:round;stroke-miterlimit:10;stroke-dasharray:none;stroke-opacity:1"
           id="path3538" />
      </g>
      <text
         xml:space="preserve"
         transform="rotate(-90,208.53649,170.9885)"
         style="font-variant:normal;font-weight:normal;font-size:12px;font-family:'Nimbus Sans';-inkscape-font-specification:NimbusSans-Regular;writing-mode:lr-tb;fill:#000000;fill-opacity:1;fill-rule:nonzero;stroke:none"
         id="text3542"><tspan
           x="0 6.6719999 10.008 16.68 85.667999 92.339996 95.676003 102.348 198.92001 205.59201 208.92801 215.60002 284.58801 291.26001 294.59601 301.26801"
           y="0"
           sodipodi:role="line"
           id="tspan3540">0.010.020.050.10</tspan></text>
      <g
         id="g3544"
         transform="scale(1,-1)">
        <path
           d="m 54.828,-0.375 h 414.719 v -371.52 H 54.828 Z"
           style="fill:none;stroke:#000000;stroke-width:0.75;stroke-linecap:round;stroke-linejoin:round;stroke-miterlimit:10;stroke-dasharray:none;stroke-opacity:1"
           id="path3546" />
      </g>
      <text
         xml:space="preserve"
         transform="translate(246.17799,426.61499)"
         style="font-variant:normal;font-weight:normal;font-size:12px;font-family:'Nimbus Sans';-inkscape-font-specification:NimbusSans-Regular;writing-mode:lr-tb;fill:#000000;fill-opacity:1;fill-rule:nonzero;stroke:none"
         id="text3550"><tspan
           x="0 6.6719999 13.344 16.007999 22.68 26.016001"
           y="0"
           sodipodi:role="line"
           id="tspan3548">points</tspan></text>
      <text
         xml:space="preserve"
         transform="rotate(-90,135.36149,126.61349)"
         style="font-variant:normal;font-weight:normal;font-size:12px;font-family:'Nimbus Sans';-inkscape-font-specification:NimbusSans-Regular;writing-mode:lr-tb;fill:#000000;fill-opacity:1;fill-rule:nonzero;stroke:none"
         id="text3554"><tspan
           x="0 9.9960003 16.667999 22.667999 25.332001 35.208 41.880001 51.875999 55.212002 57.875999 60.540001 66.300003 72.972 75.636002 78.300003 84.972 91.643997 98.316002 104.988 108.324 114.324 117.66 121.656 128.328 135 141.672 145.008"
           y="0"
           sodipodi:role="line"
           id="tspan3552">maximum likelihood strength</tspan></text>
      <text
         xml:space="preserve"
         transform="translate(358.56799,150.465)"
         style="font-variant:normal;font-weight:normal;font-size:10px;font-family:'Nimbus Sans';-inkscape-font-specification:NimbusSans-Regular;writing-mode:lr-tb;fill:#bebebe;fill-opacity:1;fill-rule:nonzero;stroke:none"
         id="text3602"><tspan
           x="0 6.6700001 12.23 17.790001 20.01 25.57"
           y="0"
           sodipodi:role="line"
           id="tspan3556">Andino</tspan><tspan
           x="-136.25 -129.58 -124.02 -118.46 -115.13 -109.57"
           y="140"
           sodipodi:role="line"
           id="tspan3558">Bourez</tspan><tspan
           x="-165.2 -158.53 -152.97 -147.97 -142.41 -136.85001"
           y="130.73999"
           sodipodi:role="line"
           id="tspan3560">Buchan</tspan><tspan
           x="-193.73 -186.50999 -180.95 -178.73 -176.50999 -174.28999 -168.73 -163.17"
           y="154.84999"
           sodipodi:role="line"
           id="tspan3562">Callinan</tspan><tspan
           x="-219.32001 -212.10001 -206.53999 -202.96001 -194.63 -192.41 -187.41 -181.85001 -176.28999 -170.73"
           y="141.39"
           sodipodi:role="line"
           id="tspan3564">Carmichael</tspan><tspan
           x="-183.16 -175.94 -170.38 -167.60001 -164.82001 -162.60001"
           y="175.13998"
           sodipodi:role="line"
           id="tspan3566">Coffin</tspan><tspan
           x="-206.39999 -199.17999 -193.62 -191.39999 -185.84 -180.28 -178.06 -172.5 -169.72"
           y="84.519989"
           sodipodi:role="line"
           id="tspan3568">Colapinto</tspan><tspan
           x="-234.16 -226.94 -223.46001 -221.24001 -216.24001 -210.68001 -205.12001 -202.34001"
           y="124.34"
           sodipodi:role="line"
           id="tspan3570">Crisanto</tspan><tspan
           x="-187.60001 -180.38 -174.82001 -171.59001"
           y="102.90999"
           sodipodi:role="line"
           id="tspan3572">Dora</tspan><tspan
           x="50.32 56.130001 61.689999 65.019997 68.349998 73.910004 76.129997 79.360001"
           y="-93.309998"
           sodipodi:role="line"
           id="tspan3574">Ferreira</tspan><tspan
           x="-70.359993 -64.249992 -62.029991 -56.46999 -53.139992 -47.57999 -42.019989 -37.019989"
           y="-133.94"
           sodipodi:role="line"
           id="tspan3576">Florence</tspan><tspan
           x="-111.10001 -104.99001 -102.77001 -97.210007 -93.880013 -88.320007"
           y="131.17"
           sodipodi:role="line"
           id="tspan3578">Flores</tspan><tspan
           x="-150.23 -144.12 -140.78999 -135.23 -129.67 -124.67 -121.89 -116.33 -110.77"
           y="151.59"
           sodipodi:role="line"
           id="tspan3580">Freestone</tspan><tspan
           x="-155.34 -152.56 -147 -141.44 -139.22 -137"
           y="119.65999"
           sodipodi:role="line"
           id="tspan3582">Ibelli</tspan><tspan
           x="-50.84 -48.060001 -42.5 -36.939999 -33.709999 -28.15 -23.15 -17.59"
           y="94.260002"
           sodipodi:role="line"
           id="tspan3584">Igarashi</tspan><tspan
           x="77.160004 85.489998 91.050003 96.610001 98.830002 104.39"
           y="-71.760002"
           sodipodi:role="line"
           id="tspan3586">Medina</tspan><tspan
           x="-134.60001 -126.27001 -120.71001 -115.15001 -112.93001"
           y="82.959999"
           sodipodi:role="line"
           id="tspan3588">Moniz</tspan><tspan
           x="-281.17999 -272.85001 -267.29001 -264.06 -258.5 -256.28"
           y="210.06001"
           sodipodi:role="line"
           id="tspan3590">Morais</tspan><tspan
           x="-92.790009 -86.12001 -83.900009 -78.340012 -75.560013 -70.000008"
           y="51.77"
           sodipodi:role="line"
           id="tspan3592">Slater</tspan><tspan
           x="26.17001 32.840012 41.17001 43.390011 46.17001"
           y="14.19999"
           sodipodi:role="line"
           id="tspan3594">Smith</tspan><tspan
           x="-25.43 -20.52 -14.96 -12.74 -7.1799998 -1.62"
           y="-37.349998"
           sodipodi:role="line"
           id="tspan3596">Toledo</tspan><tspan
           x="-118.96 -109.52 -107.3 -105.08 -100.08 -94.519997"
           y="96.549988"
           sodipodi:role="line"
           id="tspan3598">Wilson</tspan><tspan
           x="-135.31001 -125.87001 -122.39001 -120.17001 -114.61001 -109.05001"
           y="59.73999"
           sodipodi:role="line"
           id="tspan3600">Wright</tspan></text>
    </g>
    <g
       id="g3604">
      <g
         id="g3606"
         clip-path="url(#clipPath3610)">
        <g
           id="g3612">
          <g
             id="g3614">
            <g
               id="g3616"
               clip-path="url(#clipPath3620)">
              <g
                 id="g3622">
                <g
                   id="g3624"
                   transform="scale(1,-1)">
                  <path
                     d="M 54.828,-379.395 469.547,-44.766"
                     style="fill:none;stroke:#000000;stroke-width:0.75;stroke-linecap:round;stroke-linejoin:round;stroke-miterlimit:10;stroke-dasharray:none;stroke-opacity:1"
                     id="path3626" />
                </g>
              </g>
            </g>
          </g>
        </g>
        <g
           id="g3628"
           transform="scale(1,-1)">
          <path
             d="m 210.797,-293.594 c -0.567,3.328 -0.09,3.84 -2.242,6.176 -2.153,2.34 -4.598,0.504 -4.598,0.504"
             style="fill:none;stroke:#000000;stroke-width:0.75;stroke-linecap:butt;stroke-linejoin:miter;stroke-miterlimit:4;stroke-dasharray:none;stroke-opacity:1"
             id="path3630" />
        </g>
      </g>
    </g>
  </g>
</svg>
